<svg xmlns="http://www.w3.org/2000/svg" viewBox="0 0 50.6 50.6"><defs><style>.cls-1{fill:#fff;stroke:#fff;stroke-miterlimit:10;}</style></defs><title>Asset 1</title><g id="Layer_2" data-name="Layer 2"><g id="Layer_1-2" data-name="Layer 1"><path id="svg_2" data-name="svg 2" class="cls-1" d="M25.3,12.4A12.8,12.8,0,1,0,38.1,25.2,12.82,12.82,0,0,0,25.3,12.4Zm0,21a8.2,8.2,0,1,1,8.2-8.2A8.24,8.24,0,0,1,25.3,33.4Z"/><circle id="svg_3" data-name="svg 3" class="cls-1" cx="38.6" cy="12.1" r="2.9"/><path id="svg_4" data-name="svg 4" class="cls-1" d="M46.1,4.6A14.24,14.24,0,0,0,35.6.5H15C6.3.5.5,6.3.5,15V35.5A14.39,14.39,0,0,0,4.7,46.2a14.59,14.59,0,0,0,10.4,3.9H35.5A14.77,14.77,0,0,0,46,46.2a14.32,14.32,0,0,0,4.1-10.6V15A14.34,14.34,0,0,0,46.1,4.6Zm-.4,31a9.77,9.77,0,0,1-2.9,7.3,10.34,10.34,0,0,1-7.3,2.6H15.1a10.34,10.34,0,0,1-7.3-2.6,10.05,10.05,0,0,1-2.7-7.4V15A10,10,0,0,1,7.8,7.7a10.17,10.17,0,0,1,7.3-2.6H35.7A10,10,0,0,1,43,7.8,10.32,10.32,0,0,1,45.7,15V35.6Z"/></g></g></svg>