<svg xmlns="http://www.w3.org/2000/svg" viewBox="0 0 600.04 528.27"><defs><style>.cls-1,.cls-2{fill:#2a2a2a;}.cls-1{stroke:#2a2a2a;stroke-miterlimit:10;stroke-width:2px;}</style></defs><title>Asset 3</title><g id="Layer_2" data-name="Layer 2"><g id="Layer_1-2" data-name="Layer 1"><path class="cls-1" d="M527.27,527.27a5.87,5.87,0,0,1-5.09-2.93L395.81,305.65A5.87,5.87,0,1,1,406,299.78L532.34,518.46a5.87,5.87,0,0,1-5.07,8.81Z"/><path class="cls-2" d="M321.58.85l-287.27,497,.28-.45c-4.9,8.52-16.11,11.25-25,6.12s-12.18-16.21-7.28-24.72l-.52.92L279,0Z"/><path class="cls-2" d="M337.7,126.7,561.78,514.46l-.35-.61c5.3,9.42,17.71,12.49,27.71,6.86s13.81-17.83,8.51-27.25l1.17,1.94L336.53,41.52,74.25,495.4Z"/></g></g></svg>