<svg xmlns="http://www.w3.org/2000/svg" viewBox="0 0 1400.2 788.2"><defs><style>.cls-1{fill:#1e2f6a;}.cls-2{fill:#0b1538;}.cls-3{fill:#52b8fe;}.cls-4{fill:#1f90dd;}.cls-5{fill:#9dcbfe;}.cls-6{fill:#78b6fe;}.cls-7{fill:#fea900;}.cls-8{fill:#ef9300;}.cls-9{fill:#fec638;}.cls-10{fill:#1f97e5;}.cls-11{fill:#1e2863;}.cls-12{fill:#12205d;}.cls-13{fill:#48629b;}.cls-14{fill:#fed44a;}.cls-15{fill:#fee8ac;}.cls-16{fill:#fec300;}.cls-17{fill:#fdfdfd;}.cls-18{fill:#030a3c;}.cls-19{fill:#fdcb00;}.cls-20{fill:#00033e;}.cls-21{fill:#675723;}.cls-22{fill:#0b1135;}.cls-23{fill:#0b0e3a;}.cls-24{fill:#0097fe;}.cls-25{fill:#f3f8fe;}.cls-26{fill:#a3cdfe;}.cls-27{fill:#2397da;}.cls-28{fill:#168cdb;}.cls-29{fill:#71b2fe;}.cls-30{fill:#95c7fe;}.cls-31{fill:#fefefe;}.cls-32{fill:#acddfe;}.cls-33{fill:#feeab4;}.cls-34{fill:#cb6d00;}.cls-35{fill:#c55f00;}.cls-36{fill:#ed8700;}.cls-37{fill:#fe9001;}.cls-38{fill:#cb6c00;}.cls-39{fill:#be8421;}.cls-40{fill:#e8ae01;}.cls-41{fill:#feebbc;}.cls-42{fill:#fcdc83;}.cls-43{fill:#fe8f00;}.cls-44{fill:#fe910a;}.cls-45{fill:#fee89d;}.cls-46{fill:#fbc737;}.cls-47{fill:#fed933;}.cls-48{fill:#d78204;}.cls-49{fill:#f7e19d;}.cls-50{fill:#f7e09b;}.cls-51{fill:#f6df9d;}.cls-52{fill:#fcdb23;}.cls-53{fill:#c4800d;}.cls-54{fill:#feb600;}.cls-55{fill:#be8521;}.cls-56{fill:#fef2bb;}.cls-57{fill:#fef3bd;}.cls-58{fill:#dd9f58;}.cls-59{fill:#e1ab6e;}.cls-60{fill:#bd4f00;}.cls-61{fill:#fea400;}.cls-62{fill:#feae00;}.cls-63{fill:#fed49f;}.cls-64{fill:#b6771d;}.cls-65{fill:#fed52d;}.cls-66{fill:#fea635;}.cls-67{fill:#fed81d;}.cls-68{fill:#eca202;}.cls-69{fill:#a72c00;}.cls-70{fill:#ad3f00;}.cls-71{fill:#fe8c00;}.cls-72{fill:#ad6518;}.cls-73{fill:#ad3e00;}.cls-74{fill:#fed048;}.cls-75{fill:#feba00;}.cls-76{fill:#fed025;}.cls-77{fill:#fe9800;}.cls-78{fill:#e78f03;}.cls-79{fill:#fed128;}.cls-80{fill:#a75000;}.cls-81{fill:#ad7100;}.cls-82{fill:#a74f00;}.cls-83{fill:#913d18;}.cls-84{fill:#fedb4f;}.cls-85{fill:#92652e;}.cls-86{fill:#feee4f;}.cls-87{fill:#fec81a;}.cls-88{fill:#fdba00;}.cls-89{fill:#feda33;}.cls-90{fill:#fedf39;}.cls-91{fill:#fede39;}.cls-92{fill:#fee33f;}.cls-93{fill:#fee744;}</style></defs><title>Asset 6</title><g id="Layer_2" data-name="Layer 2"><g id="Layer_1-2" data-name="Layer 1"><path class="cls-1" d="M1400.11,679.1c0,34.83-.06,69.65.09,104.48,0,3.69-.76,4.62-4.57,4.62Q933,788,470.33,788.1q-233,0-465.9.08C1,788.19,0,787.72,0,783.92Q.18,394,0,4.09C0,.64.72,0,4.12,0c17.33.22,34.66.1,52,.1C58.65,1.35,60,3.61,61.31,6c4.68,8.5,8,17.6,11.5,26.59,8.68,22.19,24.11,37.2,46.86,44.5a65.91,65.91,0,0,0,34,1.59c9.64-2,19-5.1,28.57-7.31,26.54-6.11,49.53,1,69.38,18.79,8.81,7.91,14.2,18.41,18.52,29.37,3.61,9.14,6.68,18.52,11.77,27,13.26,22.1,33.58,32.75,58.56,34.77,11.21.91,22.08-2.76,32.83-5.8,10.94-3.09,21.9-5.78,33.43-5a54.84,54.84,0,0,1,11.37,1.46c3.61,1.42,8.19.78,10.5,5,.19,1.9-1,3-2.24,4.21-21.81,21.26-34.8,47-37.37,77.35-2.88,34,6.71,64.39,28.77,90.74,4.38,5.23,10,9.25,13.9,14.86a4.19,4.19,0,0,1,.13,1.59,268.54,268.54,0,0,0,.15,29,4.11,4.11,0,0,1,1,1.06,20.67,20.67,0,0,1,1.6,6.28c1.92,12.94,7.25,24.52,14.09,35.5,1.23,2,2.78,3.79,2.54,6.35-2.51,8.46-5.45,16.77-7,25.51-1.79,10.1-1.06,20.27-1.34,30.41.17,22.11-1.55,44.3.91,66.3,6.17,55.36,53.14,99.85,108.73,103.64,15.26,1.92,30.57.95,45.85,1q116.82.16,233.64,0c7.14,0,14.3.39,21.37-1,40.86-2.9,75.76-38.88,74.2-85.71.08-1.58.14-3.15.12-4.73-.47-6.29,0-12.6-.93-18.91a62,62,0,0,0-12.28-29.07c-1.51-2-3.23-3.83-4-6.29-.33-2.78,1.28-4.79,3-6.54,9.51-9.76,17.61-20.61,25.29-31.81a6.17,6.17,0,0,1,1.39-1.41c3.86-1.63,7.87-.39,11.8-.66,10.83.1,21-3.19,31.29-6,8.52-2.34,17.06-4.53,25.94-5,23.87-1.31,57.91,12.74,71.29,47.05,4.17,10.69,8,21.52,13.94,31.49,13.68,23.15,45.1,38.47,73.6,32.21,11.56-2.54,22.73-6.55,34.42-8.55,33-5.63,66.25,12.25,79.61,42.9,3.33,7.64,6.33,15.41,9.47,23.13,13.65,33.49,48.29,51.21,83.46,42.76,6.48-1.56,12.86-3.5,19.33-5.09C1396.2,678.91,1398.12,678,1400.11,679.1Z"/><path class="cls-2" d="M418,173.13c-18.5-3.78-36,1.19-53.38,6.37-27.2,8.11-50.95,1.3-71.9-16.57-9.69-8.26-15.11-19.68-19.64-31.43-4.73-12.25-9.2-24.56-17.8-34.95-9.84-11.89-22.54-19-36.94-23.36-15-4.54-30-2.33-44.65,1.94-10.39,3-20.79,6.22-31.6,6.74-13.94.66-26.82-3.55-39-10.33-17.34-9.65-26.92-25.2-33.66-43C65.72,18.7,61.64,9.07,56.11.1Q725.86.1,1395.61,0c3.75,0,4.6.84,4.59,4.59q-.16,337.25-.09,674.5c-14.48,4.22-28.73,9.31-44.19,9.09-17-.24-31.68-6.48-44.92-16.7-12.95-10-19.33-24.17-24.92-38.89-4.92-12.95-10.12-25.85-20.58-35.49-15.57-14.35-33.88-22.21-55.31-20.85-10.63.67-20.84,4-31,7-14.94,4.39-30,5.91-45.1,1-24.11-7.82-40.15-23.85-49-47.53-4.05-10.88-7.69-22.08-14.91-31.45-17-22.11-39.25-32.46-67.36-29.34-12.64,1.4-24.39,6.42-36.79,8.7-4.56.84-9.12,1.86-13.82,1.49-1.07-2.38.46-4.16,1.46-6A229.76,229.76,0,0,0,980,398.44c1.43-11.25,1.51-22.54,1.43-33.85,0-2.64-.29-5.34.77-7.88,1.65-2.36,3.9-2.24,6.31-1.49.07,0,.27-.15.3-.27s0-.29-.07-.48a1.76,1.76,0,0,1,.57-1c6.06-1.64,11.12-4.53,13.69-10.63.59-1.06,1-2.2,1.64-3.24.27-.47.53-.94.76-1.43a24.08,24.08,0,0,0,.24-5.49q0-52,0-103.94a21.83,21.83,0,0,0-.33-5.95c-.28-.45-.54-.93-.8-1.4-.79-1.58-.94-3.39-1.72-5-.6-4.84-5-8.11-5.35-13.07-.7-3.91-4.09-6.85-4-11.07,0-.7-.62-1.46-1.28-1.24-4.74,1.58-9-1.26-13.61-1.21a4.15,4.15,0,0,0-1,.26c-23-1.13-46-.39-69-.46-5.22.05-6.68-4.34-9-7.65-.52-3.21-2.54-5.16-5.44-6.35-6.61-4.79-12.25-10.71-18.51-15.91-14.15-11.76-29.7-21.36-45.73-30.29A274.2,274.2,0,0,0,746,100a271.22,271.22,0,0,0-132.07,8.86q-9.49,3-18.7,6.95c-2.43,1-4.81,2.34-7.6,2.14-8.83-4.28-17.67-8.58-27.61-9.72-29.24-3.35-53.55,5.39-71.3,29.59a16.69,16.69,0,0,1-10.93,7,124.47,124.47,0,0,0-54.49,25.8A9.89,9.89,0,0,1,418,173.13Z"/><path class="cls-3" d="M910.53,524c14.86,15.42,20,34.06,18.27,55C923.41,593.77,915,599.57,899,599.57q-146.25,0-292.49,0A23.36,23.36,0,0,0,603,600c-16.63-.6-33.28,0-49.92-.3q-71.61-1.45-103.73-65.56c-5.37-10.71-7.68-22.2-8.15-34.11-1.06-19.67.58-38.91,9.14-57,2.4-.34,3.54,1.45,4.85,2.91,17,19,38.17,29.33,63.68,30.61,3.31.17,6.56,1.13,9.9.78a39.41,39.41,0,0,1,9.41-.8c15.39-.27,21.72-5.23,25.75-20.31.59-1.43.78-3.06,2-4.21,3.21-.47,4.19,2.27,5.65,4.11,10.56,13.3,21.31,26.45,33.58,38.23,42.29,40.61,91.48,67.8,150,76.66,28.49,4.32,56.81,3.72,84.55-4.52,24.55-7.29,47-18.54,65-37.47a14.05,14.05,0,0,0,2.61-3.25C908.11,524.75,908.74,523.28,910.53,524Z"/><path class="cls-4" d="M441.19,500.07c2.1,8.82,3.33,17.82,6.78,26.35q23,56.82,82.74,69.67a109.27,109.27,0,0,0,24.24,2.07c14-.13,27.94-.05,41.91-.07,2.16,0,4.34-.15,6.34.91a6.06,6.06,0,0,1,4.6,2.09c6.21,3.87,12,8.36,19,10.94a62.53,62.53,0,0,0,21.93,4.25q120.92-.06,241.84,0c17.29,0,30.21-9.82,35.12-26.38.61-2.07.23-4.86,3.19-5.67,2,42.75-28.36,80.23-70.34,86.67a30.55,30.55,0,0,1-3.48.15c-3.47-1.18-6.91.15-10.38.15q-141.09-.11-282.17,0c-3.79,0-7.57-1.41-11.37-.11a111.52,111.52,0,0,1-62-23.66c-32.15-25-48.36-58-48.15-98.9Q441.12,524.27,441.19,500.07Z"/><path class="cls-5" d="M529.51,478.43A92.92,92.92,0,0,1,498.58,475c-18.34-5.31-34-14.85-46.08-30a20.65,20.65,0,0,0-2.17-2.05c-10.07-14.44-16.83-30.14-18.35-47.86a3.5,3.5,0,0,1-.66-2.33c.65-8.77.27-17.56.22-26.33l-.18-.73-.19-.73a2.09,2.09,0,0,0-.06-.88c-2.06-8.67-.06-17.25.73-25.82,1.26-13.64,4.55-26.93,7.45-40.29.73-4,.32-8,.33-11.94,0-18.94,0-37.88,0-56.82,0-2.29-.41-4.68.9-6.81a1.4,1.4,0,0,1,1.72-.45c2.31,2.69,1.72,6,1.72,9.08q.08,51.18,0,102.36c0,3.53.08,7,2.25,10,3.1,4.3,7.12,6.7,12.65,6.69,19.14,0,38.28,0,57.42,0,3.8,0,7.62,1.07,11.4-.18,6.54.66,13.21-.46,19.69,1.22a2.71,2.71,0,0,1,1.16,1.21c.08,7,0,7.11-7,7.6-18.26,1.26-31.35,13-34.21,30.72-3.1,19.17,11.78,38,31.26,39.65,1.33.11,2.66.15,4,.16,4.13,0,6.09,2.07,6.1,6.17,0,6.16.45,12.35-.14,18.48C547.42,467.06,541.61,475.39,529.51,478.43Z"/><path class="cls-6" d="M442,222.05l-.84.09c-.81.82-.55,1.86-.55,2.82q0,35.56,0,71.11A5.9,5.9,0,0,0,441,299a357.21,357.21,0,0,0-8.79,50.85c-.48,4.76.91,9.66-1.09,14.31-19.11-15.41-32.26-35.07-38.73-58.52-13.77-49.88-1.37-92.89,36-128.68,2.83-1.43,5.17.24,7.4,1.45,7,3.79,13.78,7.86,19.17,13.86,1.62,2.1,4.49,3.54,3.62,6.94-6.56,6.1-12.54,12.61-15.19,21.49A2.36,2.36,0,0,1,442,222.05Z"/><path class="cls-7" d="M454.22,193.06c-7.64-6.93-16-12.75-25.85-16.1-3.15-2.1-7-2.31-10.36-3.82,17.06-15.72,37.19-25.38,59.8-30,3.91-.79,6.67-2.22,9.13-5.7,22.29-31.47,64.54-41.12,97.57-22.53,1,.56,1.89,1.3,2.83,2,.32,2.34-1.7,2.64-3.07,3.28a284.47,284.47,0,0,0-67,43.93c-8.53,7.46-16.29,15.71-24.13,23.88-1.27,1.32-2.31,2.87-4.23,3.36-7.22.48-14.44.1-21.65.23-2,0-3.95-.13-5.84.59C459.05,192.82,456.72,193.58,454.22,193.06Z"/><path class="cls-5" d="M928.88,584.19c-1.57,10-5.61,18.7-13.53,25.38-6.48,5.46-13.83,8.68-22.34,8.68q-122.48.06-245-.06c-16.09,0-30.14-6.21-42.1-17,1.63-2.57,4.22-1.53,6.39-1.53q142.41-.08,284.83,0c1.62,0,3.23,0,3.9,0a38.09,38.09,0,0,1-4.08,0q-143.91,0-287.83,0c-1.39,0-3.45,1.23-4-1.38l136.92,0H899c13.07,0,22.78-5.27,27.9-17.74.39-1,.46-2,1.92-1.39Z"/><path class="cls-8" d="M989.27,354.28q-.24.33-.5.64c-1.61,1.65-4-.21-5.62,1.18.68,20.49-.26,40.84-4.48,61a232,232,0,0,1-26.49,69c-3.93.64-7.87-1-11.8,0-3.35.8-6.43.57-8.8-2.33-1-4.69,3.1-7.3,4.48-11,1.45-2.39,2.82-4.86,5-6.73a99.77,99.77,0,0,0,21.39-30.33q18.65-41.56,3.16-84.47a20.42,20.42,0,0,0-3.38-6.62c-1.49-2.61-1.83-5.56-2.44-8.43a177.52,177.52,0,0,0-10-37.68c1.37-7,11.5-15.34,17.73-14.55,3.28,4.86,4.44,10.56,6.31,16,5.29,14.2,7.94,29,9.65,44C984,348.46,984.91,352.17,989.27,354.28Z"/><path class="cls-9" d="M932.11,483.3c2.41,2,5.76,1.12,8.26,2.8-8.2,14-18.86,26.08-29.84,37.91l-2.38,2.36c-1.13,1.26-2.32,2.47-3.51,3.69-16.2,15.36-36.29,22.93-57.33,28.51-9,2.38-18.26,3.47-27.47,4.72-1.82.25-3.64.46-5.33-.55-1.22-3.88,2.27-3.86,4.17-4.46,10-3.16,19.48-7.67,28.77-12.52a202.2,202.2,0,0,0,41.91-29.41,206.59,206.59,0,0,0,29.53-33.61,8.94,8.94,0,0,1,3.08-3.2,6.24,6.24,0,0,1,4.44.44C928.37,481,930.8,481.19,932.11,483.3Z"/><path class="cls-10" d="M551.14,671c1.54-1.48,3.47-.92,5.24-.92q146.71,0,293.43,0c1.77,0,3.7-.55,5.25.89a98.49,98.49,0,0,1-14.92.87q-135.54,0-271.08,0A148.74,148.74,0,0,1,551.14,671Z"/><path class="cls-11" d="M439.32,554.6V498.41h.49v56.38Z"/><path class="cls-12" d="M431.17,395a2.22,2.22,0,0,1-.13.48c-.31.57-.85.56-.86,0-.07-5.95-.26-11.9,0-17.83.19-4.19-1.27-8.55,1-12.58l.13-.09A105.5,105.5,0,0,1,431.17,395Z"/><path class="cls-13" d="M431.17,395q.06-15,.12-30.06a2.39,2.39,0,0,1,.83.14c.93,9.3.55,18.61.2,27.92l-.34,2.15Q431.57,395.1,431.17,395Z"/><path class="cls-14" d="M490,190c7.53-10,16.79-18.44,26.06-26.77,21.31-19.15,45.45-34,71.27-46.28,13.82-5.21,27.55-10.71,41.94-14.25q104.8-25.79,200.14,24.77a23.5,23.5,0,0,1,2.42,1.69c-2.19,2-4.44.82-6.52-.06a183.41,183.41,0,0,0-55-13.67,175.09,175.09,0,0,0-56,4.15c-35.8,8.27-66.29,26.23-92.58,51.69a250.7,250.7,0,0,0-35.17,42.7c-1.09,1.66-2,3.51-4.37,3.72-2.39-.5-2.75-2.65-3.55-4.42-6.92-15.42-20.43-23-37.38-21a13.84,13.84,0,0,1-6.41-.25c-12.78-.86-25.57-.12-38.34-.41C494.25,191.5,491.75,192.16,490,190Z"/><path class="cls-15" d="M582.15,217.11c6.64-8.7,12.47-18,19.45-26.44C634.29,151,674.83,124.17,726,115.5c34.57-5.85,68.22-1.51,100.53,12.36,1.69.73,3.34,1.53,5.26,1.26,21.9,11.74,42.25,25.62,59.87,43.28,1,1.05,2.17,2,3.26,3a8.28,8.28,0,0,1,5.07,5.7l7.11,7.89a4,4,0,0,1,2,.82,235,235,0,0,1,18.11,24.94c.9,1.39,1.79,2.83,1.36,4.64a1.62,1.62,0,0,1-1.83,1c-2.63-1-4.29-3.13-6.11-5a232.36,232.36,0,0,0-59.16-45.51,220.77,220.77,0,0,0-80.62-25.08c-25.91-2.84-51.59-1.65-76.54,6.78a177.31,177.31,0,0,0-67.5,41.61c-4.76,4.63-10,8.88-13.66,14.52-13.76,15.62-24.55,33.16-33.45,51.92a18.59,18.59,0,0,1-2.29,4.42c-1.08,1.26-2.27,2.18-3.51.12-.76-13.19-.08-26.37-.34-38.41,0,10.19.05,21.52,0,32.86a25.35,25.35,0,0,0,1.38,9.32c0,1.77-.45,3.23-2.63,3.29-1.88-1.32-2-3.37-2.07-5.34-.17-14.43-.15-28.86,0-43.29C580.26,220.57,580.38,218.52,582.15,217.11Z"/><path class="cls-16" d="M989.27,354.28c-6.79-.62-6.55-.81-7.24-7.73-1.58-15.82-4.41-31.41-9.9-46.42a7,7,0,0,1,3.1-2.32c7.38-2.26,10.7-7.63,11.42-15a6.57,6.57,0,0,1,.66-2.35,3.19,3.19,0,0,1,1.33-1.15c.59-.3.85-.58.31-.2,0,0-.21-.09-.36-.15a5.66,5.66,0,0,1-3.4-2.36c-2.29-4.74-6.59-6.94-11.16-8.8-5.63-4.93-8.16-11.56-10.09-18.49a6,6,0,0,1,.71-5.26c1.77-1.47,3.81-.66,5.75-.62,7.61.19,13.19-3.75,15.36-10.9a14.27,14.27,0,0,0-6.53-16.74,14.82,14.82,0,0,0-18,2.07c-5,4.67-5.95,11.75-2.5,18.28a26.11,26.11,0,0,1,1.8,3.55c-.88,6.18-5,9.52-10.33,11.82a5.54,5.54,0,0,1-3.36-2.77c-4.38-6.83-9.71-13-13.83-20-.62-2.09-2.25-3.69-2.85-5.79a5.62,5.62,0,0,1-.22-1.5c1.74-15.54,14.88-30.6,32.26-32.27a8.39,8.39,0,0,1,2.38.11c3.73.62,7.54.11,11.26.78,1.27.11,2.59-.31,3.83.26,2.49,4.17,2.1,6.05-2.66,11.54,4.78.34,8,2.93,10.28,6.6,3.43-2.31,4.85-8,10.47-5.19,2.53,4,5.43,7.92,6.15,12.84,3.6,39.37.66,78.82,1.68,118.22.08,3.1-1.87,5.7-1.49,8.76C1001.7,350.19,996.66,353.79,989.27,354.28Z"/><path class="cls-17" d="M997.81,203.3c-5.31.41-8.1,3.88-10.13,8.93-2.81-6-6.75-9.76-14.07-9.12,4.07-3.27,7.13-6.53,6.32-11.69-.48-1.05-1.52-2-.89-3.3.36-.22.91-.7,1-.61,4.69,3.46,9.54,3.36,14.82.29.45,3.11-.44,5.92.7,8.54a13.8,13.8,0,0,0,5.49,6.25Z"/><path class="cls-18" d="M979,188.12a3.89,3.89,0,0,1,.89,3.3l-3.56-.43c-4-1.06-8.22.29-12.25-.78l-2,0c-15.9,3.06-32,1.59-48,1.84a12.55,12.55,0,0,1-6.1-1.9l-.88-1.11c1.55-1.45,3.48-.89,5.25-.89,18.82,0,37.63.1,56.45-.13C972.26,188,975.64,190.34,979,188.12Z"/><path class="cls-19" d="M1004.15,343.12c-2.43-2.51.06-5,0-7.56q-.19-54.39-.06-108.78c0-3.55-2.48-7.06-.17-10.64l1.26,4.9c1.23,1.8.87,3.86.87,5.83q0,53.74,0,107.48c0,2,.36,4-.85,5.83Z"/><path class="cls-20" d="M1006,221.25c2,.12,1,1.66,1,2.48q.08,56.86,0,113.71c0,.84,1,2.36-1,2.55-.71-1.24-.43-2.6-.43-3.92q0-55.45,0-110.9C1005.63,223.87,1005.37,222.51,1006,221.25Z"/><path class="cls-21" d="M1006,221.25q0,59.37,0,118.75a7.72,7.72,0,0,1-.81.18q0-59.57,0-119.14Q1005.63,221.13,1006,221.25Z"/><path class="cls-22" d="M900,181.13l-5.07-5.7C898.3,175.88,900.49,177.33,900,181.13Z"/><path class="cls-23" d="M983.15,356.1c1.41-2.6,3.67-1.14,5.62-1.17l1.93.32.06.86Z"/><path class="cls-24" d="M814,561.88c31.75-2,61.14-10.8,87-29.87,1.33-1,2.64-2,4-3a.75.75,0,0,1,1.27,0c-12.18,14-27.55,23.43-44.26,30.91-26.65,11.93-54.71,16.5-83.69,15a252.65,252.65,0,0,1-89.69-21.64c-35.51-15.72-66.08-38.41-92.89-66.28-10.61-11-20.07-23.07-29.49-35.13-2.69-2.61-1.3-6-1.57-9-.19-2.15.06-4.33,0-6.49-.17-3.74,1.64-6,5.1-7,2.7-.8,5.27-2.11,8.16-2.19,2.3.22,3.3,2,4.38,3.71a316.48,316.48,0,0,0,51.56,62.09c28.74,26.6,61.41,46.65,99.15,58a212.94,212.94,0,0,0,42,8.62c4.27,1.35,8.67.41,13,.75a57.16,57.16,0,0,0,21.28.3C810.95,560.67,812.65,560.56,814,561.88Z"/><path class="cls-25" d="M529.51,478.43c.23-.4.38-1,.71-1.15,12.52-4.72,17.23-14.25,16.87-27-.13-4.49-.17-9,0-13.49.15-3.27-.62-4.91-4.37-4.68-17.41,1.08-34.15-12.55-37.15-31.54-2.93-18.55,11.08-38.63,29.84-41.43,1.81-.27,3.77-1.15,5.39-.73,4.9,1.29,6.52-1.27,7.23-5.34,7.36-.4,14.73-1.27,22,.54a4.43,4.43,0,0,1,.81,5,3.89,3.89,0,0,1-3.84,1.84c-3.72-.17-7.41-.64-10.13-.56,14.21,5.78,22.58,17.3,23.67,33.62,1,15.52-6.13,27.05-21.86,36.87,6.84.6,6.91.6,6.83,7.26-.08,6.15.37,12.31-.27,18.45-2.1,14.22-11.13,22.12-25.35,22.21C536.48,478.3,533,478.38,529.51,478.43Z"/><path class="cls-25" d="M561.23,560.27C544,563,530.83,555.49,527,540.69c-5.28-20.42,12.1-38.46,32.71-34,.8.18,1.64.21,2.46.31,3.16-.6,5.78.69,8.28,2.39,17.31,11.77,16.4,38.48-1.66,49.14A11.61,11.61,0,0,1,561.23,560.27Z"/><path class="cls-6" d="M565.32,456.07c-.09-6.49-.38-13-.2-19.47.1-3.47-.91-4.88-4.46-4.49a21.13,21.13,0,0,1-7.11-.54c15.59-7.23,25.41-18.4,25.45-35.95s-9.41-29.13-25.8-35.87c6.09-2.6,11.48-.78,16.85-.44,2-.78,4-.22,5.8.64,12.47,5.86,20.55,15.42,22.55,29.11,2.15,14.71-2.29,27.3-14.27,36.74-1.58,1.24-3.21,2.41-5.39,2.25-3.26,1.09-6.5,2.27-9.8,3.26-2,.6-3.05,1.6-3,3.83.17,5.59.2,11.19.29,16.78C566,453.31,566.45,454.87,565.32,456.07Z"/><path class="cls-24" d="M561.23,560.27c12.71-4.55,19.89-13.82,20.14-26,.26-12.59-6.47-22.12-19.21-27.21,7.85-2.89,19.52.5,25.75,7.5a28.07,28.07,0,0,1,3.52,32.95c-5.67,10-17.75,15.49-29.4,13.35C561.73,560.78,561.49,560.46,561.23,560.27Z"/><path class="cls-26" d="M605.14,598.17c1.89,1.62,4.16.9,6.25.9q143,.06,286,0h5.4l0,1H613.27c-2.48,0-5-.33-7.31,1.07L603.2,599A1.76,1.76,0,0,1,605.14,598.17Z"/><path class="cls-27" d="M906.26,529.08,905,529a5.2,5.2,0,0,1,3.16-2.67A3.13,3.13,0,0,1,906.26,529.08Z"/><path class="cls-28" d="M645.32,619.36H894.9v.49H645.32Z"/><path class="cls-25" d="M442,222.05c2.18-9.94,6.94-18.07,16.12-23.14,3.21-.31,4,2.45,5.42,4.36,1.17,1.6,2.09,3.39,3.16,5.07,1.05,2,2,4,3,6a9.05,9.05,0,0,1,.54,1.24c.59,2.44,2,4.54,3,6.82A153.53,153.53,0,0,0,481,241.54a56,56,0,0,0,10.83,16.9C497,263.7,502.18,269,509,272.29c3,2,7.16,2.52,8.44,6.69,1,7.27.39,14.57.47,21.85.12,10.77.22,21.56,0,32.32-.16,6.54,1.82,11.66,7.45,15.21a5.56,5.56,0,0,1,2.6,2.91c-1.38,1.38-3.14.87-4.75.87q-32,0-64,0c-10.59,0-17.15-6.56-17.16-17.1Q442,278.55,442,222.05Z"/><path class="cls-6" d="M527.91,351.27C520,348.69,516,343.41,516,335c-.06-19.12,0-38.23,0-57.35,2.77-1.19,5.17.32,7.58,1.2,3,1.08,6,1.7,9,2.58a12.32,12.32,0,0,1,6.67,2.1c1.12,1.09,1.39,2.59,1.91,4,2.91,7.69,8.27,11,16.21,9.92,6.29-.82,11.1-6.22,12-13.37.18-1.46-.13-3,.66-4.37,3.51-2.77,7.8-3.29,12-4.11a13.73,13.73,0,0,1,3.44-.66c3.55.19,4.15,2.61,4.17,5.49.05,5.91,0,11.83,0,17.74-.09,12.6.16,25.21-.12,37.81-.89,4.06-1.94,8-4.81,11.28-4.12,4.64-9,7.31-15.4,5.89-7-.52-14,1-21-.88C541.5,351.74,534.64,352.83,527.91,351.27Z"/><path class="cls-29" d="M441,299c-1.09-1.07-.86-2.46-.87-3.77q0-35.24,0-70.49c0-.86-1-2.39,1-2.6Q441.07,260.57,441,299Z"/><path class="cls-30" d="M457.32,353.36H528.9v.49H457.32Z"/><path class="cls-31" d="M548.29,352.25l22,.29a1.08,1.08,0,0,1-.24,1.57c-5.77,0-11.54,0-17.31,0-1.6,0-3.34.41-4.64-1A7.22,7.22,0,0,1,548.29,352.25Z"/><path class="cls-32" d="M432.31,393l-.2-27.92c1.46-.1,1,1,1,1.69C432.66,375.53,434.08,384.32,432.31,393Z"/><path class="cls-15" d="M479.95,242.26c-3.39-6.31-6.36-12.79-7.91-19.83a30.19,30.19,0,0,0-3-7.31l0,0c-.88-2.11-1.33-4.47-3.26-6-3-3-4-7.69-7.68-10.23-.17-2.71-3.15-3.54-3.9-5.86,1.66-1.59,3.73-1.91,5.89-1.94q31,0,61.91,0c2.28,0,4.7-.51,6.71,1.16,1.56,2.39-.58,3.35-1.93,4.25-12.49,8.33-17.56,20.06-17,34.88.42,11.6.13,23.23,0,34.84,0,2.42.44,5.06-1.87,6.9-6.95-3-12.09-8.14-16.94-13.68C487,254,483.58,248,479.95,242.26Z"/><path class="cls-33" d="M529.18,193.13a27.05,27.05,0,0,0-8.36-1.06q-27.49.08-55,0c-1.93,0-4,.67-5.72-1,6.78-1.92,13.7-.56,20.55-.94,3.11-.17,6.23-.15,9.34-.21,13.62.08,27.24.13,40.86.25,1.75,0,3.68-.66,5.21.86C534.43,193.95,532.11,194.55,529.18,193.13Z"/><path class="cls-34" d="M584.14,276.13l-1.92.47c-1.89-2.14-1.16-3.89.8-5.47l1.1-3a2,2,0,0,1,1.12-2.79c8-16.81,16.69-33.16,28.08-48,2.72-3.54,5.72-6.86,8.59-10.28,11.11-10.78,24.16-18.74,37.91-25.52a211.27,211.27,0,0,1,93.4-22.25A210.43,210.43,0,0,1,930,252.59c1.44,2.15,3.42,4.23,2.48,7.26-3.64,3.32-7.74,1.79-11.74,1.1-.58-.2-1.19-.33-1.78-.53a9.3,9.3,0,0,0-.9-.25c.3.16.65.19,1,.33,17.81,3.58,30.54,29.15,27,42.72a5.15,5.15,0,0,1-.36.9c-.26.46-.31.57-.08.28,1.1-2.6,1.21-5.86,4.86-6.45.51.39,1.31.68,1.48,1.19,4.14,12,8.06,24.16,9.24,36.95-2.82.46-3.69-1.85-4.82-3.56-18.64-28.28-44.42-45.55-78.13-50.19a99.32,99.32,0,0,0-32.83.85c-2.93.58-5.87,1.34-8.9.59-3.84-1.52-6.34-4.8-9.38-7.33-25.37-21.07-54.35-34.18-87-38.26-45-5.62-86.22,4.79-123.16,31.38a50.88,50.88,0,0,1-7.1,4.61c-6.68.79-13.38,1.45-20.08,2.09C587.84,275.83,586,274.95,584.14,276.13Z"/><path class="cls-35" d="M837.13,283a125.49,125.49,0,0,1,33.48-2.95c20.6.9,39.26,7.61,56.11,19.24a111.28,111.28,0,0,1,31.82,33.82c.69,1.12,1.22,2.4,2.57,2.95l2,8a31.69,31.69,0,0,1,2.73,12.09c.46,8.81.22,17.64.12,26.46a7.75,7.75,0,0,1-1.47,5.17c-3.54.45-2.72-2.48-3-4.2-1.36-9.21-2.51-18.45-6-27.19-13.39-33.56-37.52-54.43-73-61.94-11.54-2.44-23.1-2.17-34.7-.66a4.83,4.83,0,0,1-2.88-.78,57.72,57.72,0,0,1-4.66-4.3C839.11,286.9,836.18,286,837.13,283Z"/><path class="cls-31" d="M950.39,298a24.92,24.92,0,0,0-4.45,7.91c-1.76.14-1.35-.86-1-1.85,1-19.79-9-35.85-26.67-43.06-.4-.92-.11-1.26.86-1,4.39.38,8.78.81,13.06-.74,5.82-3,11.57-6.2,17.91-8.08a28.55,28.55,0,0,0,10-11c0-2.54.66-4.62,3.45-5.35,1.49.53,1.75,1.83,2,3.15a12.14,12.14,0,0,1-.57,6.16,35.82,35.82,0,0,0,10,23,53.78,53.78,0,0,1,11.09,9.13l3.77,2.09c-2.66,3.47-6.91,1.3-10.11,2.87-4.27.7-8.21,3-12.69,2.74A35.39,35.39,0,0,0,950.39,298Z"/><path class="cls-36" d="M963.16,388.17c1.39-1.56.9-3.47.91-5.25.09-12.95.33-25.9-1-38.82,5.17,5.08,6.13,12.09,7.78,18.53a109.89,109.89,0,0,1-2.12,61.79,98.32,98.32,0,0,1-19.54,35c-2.43,2.79-3.79,6.82-8.08,7.7-1-2.11.19-3.88.95-5.64,3.38-7.92,6.92-15.76,9.8-23.88a42,42,0,0,0,2.17-8.13,193.48,193.48,0,0,0,7.38-36.83C961.59,391,961.65,389.29,963.16,388.17Z"/><path class="cls-35" d="M955.17,430.11c-.95,8.37-4.92,15.74-7.88,23.43-1.78,4.63-4.08,9.05-6.15,13.57l-4,6c-3.49,3-5.75,7.66-11.12,8.06l-3.83-.93c-2.46,0-4.44-1.29-6.51-2.34-1-.7-2-1.45-1.92-2.88.52-1.74,2-2.61,3.37-3.51,14.61-9.39,25.64-22,33.82-37.27C951.88,432.51,952.27,430,955.17,430.11Z"/><path class="cls-37" d="M967.07,284c3.62-2.51,7.87-3.12,12-4,3-.42,6-.84,9,.22,0,12-3.63,16.53-16,20Z"/><path class="cls-38" d="M926,481.18c3.85-2.49,6.64-6.44,11.12-8.06-.92,3.77-4.25,6.34-5,10.18A13.73,13.73,0,0,1,926,481.18Z"/><path class="cls-39" d="M916.14,477.08a11.44,11.44,0,0,1,6,3.16c-16.44,25.48-38.09,45.56-63.89,61.21A182.22,182.22,0,0,1,818.05,560a33.17,33.17,0,0,0-4,1.87l-4.83.33c-7-.28-14.05-.41-21.08-.05A54.93,54.93,0,0,1,774.16,561c.15-2.7,2.56-2.74,4.24-3.4a165.21,165.21,0,0,0,58.17-38.7,149.41,149.41,0,0,0,20.61-26.27,4.3,4.3,0,0,1,3.09-2.08c17.45.75,33.55-4,49-11.81C911.37,477.69,913.38,475.75,916.14,477.08Z"/><path class="cls-16" d="M583,271.12l-.8,5.47-12,3.73c-1.22,1.93-2.92,2.21-4.93,1.46-1.7-1-2.12-2.86-3-4.45-3.15-5.94-7.87-9.16-14.83-8.69-6.55.44-10.6,4-13,9.84-.64,1.51-.91,3.21-2.37,4.26-5.66-.81-10.85-3.13-16.15-5.09l-8-4.49c.06-14,.55-27.95.08-41.9-.59-17.17,5.93-29.95,21.14-38.12l6.89-2.06c5.58-.13,11.09-1.79,16.74-.55,13.66,3,23.18,10.72,28,24a20.53,20.53,0,0,0,1.35,2.57q.11,25.6.24,51.19A13.54,13.54,0,0,0,583,271.12Z"/><path class="cls-8" d="M950.12,251.14a32.79,32.79,0,0,1-17.91,8.08c-10.9-18.34-25.06-33.84-41.07-47.81A196.89,196.89,0,0,0,845,181.12C823.34,171,800.71,164.28,776.76,162c-34.88-3.34-68.59.9-101.13,14.09a206.17,206.17,0,0,0-50.25,29.27c-1.06.83-2,1.78-3.47,1.73,26.62-31.84,59.6-53.9,100.57-61.77,52.7-10.12,101.9,1.43,148,27.79,21.58,12.35,40.25,28.38,56.72,47a5.34,5.34,0,0,1,3.6,3.52c.8,1.77,2.49,2.9,3.34,4.63Z"/><path class="cls-40" d="M908,190.12l54.07.06c-6.74,1.77-13.12,4.09-18.53,8.84-7.13,6.25-10.65,14.25-12.54,23.23-2.38.15-2.33-1.8-2.81-3.28C922.29,208.79,914.93,199.62,908,190.12Z"/><path class="cls-41" d="M585.24,265.31l-1.12,2.79c-1.14-1-1-2.4-1-3.71q0-20.15,0-40.3a2,2,0,0,1,.95-1.74q0,18.1,0,36.2C584.11,260.87,583.92,263.22,585.24,265.31Z"/><path class="cls-42" d="M928.22,219l2.81,3.28a2.88,2.88,0,0,0,.16.84c.32,1-.09,1.22-1,.94l-3-4Z"/><path class="cls-43" d="M963.14,235.13l-3,5c-6.64-7-6.78-16.59-.36-23.17a16.71,16.71,0,0,1,23.06-.63,16.46,16.46,0,0,1,1.31,23c-5.11,5.8-11.8,7-19.14,4.74-1-1.87-.55-3.93-.75-5.91,1.06-1.68-.39-3.49.26-5.14,0,0,.1-.14,0-.2A4.46,4.46,0,0,1,963.14,235.13Z"/><path class="cls-44" d="M986.1,276.29A27.53,27.53,0,0,1,975,267.15C980.13,268.47,984.29,271,986.1,276.29Z"/><path class="cls-45" d="M988.11,280.18l-9-.22c3.34-2.23,7.37.19,10.77-1.58.88.27,1.92.29,2.41,1.39C990.94,280.72,989.46,279.83,988.11,280.18Z"/><path class="cls-40" d="M964.12,190.2c4.11-.12,8.24-.69,12.25.78C972.28,190.86,968.1,192,964.12,190.2Z"/><path class="cls-46" d="M930.21,224l1-.94c1.3,1.53,2.74,3,2.91,5.14A10.81,10.81,0,0,1,930.21,224Z"/><path class="cls-47" d="M858.23,493.25C850.72,506.12,841,517.15,830,527.18c-16.39,15-35.26,25.86-55.89,33.84-18.51-1.48-36.32-6.09-53.66-12.49-55.29-20.4-97.64-57.13-131.33-104.67-3.65-5.15-7-10.53-10.44-15.81,2.92-2.43,6.12-4.59,8.71-7.33a36.92,36.92,0,0,0-13.74-59.9c-1.23-.47-2.44-1-3.66-1.5q0-2.61,0-5.22l.24-1.57c10-.58,15.54-6.26,17.7-15.71,1.34-2.62.58-5.42.61-8.13.11-9.74,0-19.47,0-29.21,0-.52,0-1,0-1.56,1.6-4.67,5.2-7.9,8.46-11.31,4.88-5.09,9.9-10.06,16.07-13.65,9.51-1.37,17.56,3.11,25.6,6.9,16.54,7.79,27.81,20.71,34.91,37.46,4,9.34,7.15,19,11.85,28,11.11,21.23,29.36,32.87,52.34,37.82a14.6,14.6,0,0,1,3.86.93c2.92,1,5.95.57,8.92.53,3.84-.05,5.2,1.53,5.2,5.4,0,23.19,7.81,43.75,22.3,61.62,17.38,21.43,40,34.16,67.28,38.5,3,.47,6,.1,9,.48C856,490.83,858.29,490.43,858.23,493.25Z"/><path class="cls-48" d="M788.09,562.16a42.86,42.86,0,0,1,21.08.05A103.15,103.15,0,0,1,788.09,562.16Z"/><path class="cls-31" d="M514.85,279.32v58.57h-.49V279.32Z"/><path class="cls-49" d="M479.95,242.26c2.77.39,2.68,3.12,3.64,4.82,2.37,4.2,6,7.62,7.44,12.39A49.29,49.29,0,0,1,479.95,242.26Z"/><path class="cls-50" d="M469,215.12c2.17,2,3.52,4.24,3,7.31C470.49,220.22,469.14,217.92,469,215.12Z"/><path class="cls-51" d="M465.8,209.15c2.73,1.11,3.23,3.43,3.26,6C467.35,213.49,466.67,211.27,465.8,209.15Z"/><path class="cls-37" d="M532.1,282.74c.93-8.54,6.83-15.13,14-15.64,10.27-.74,16.17,3.65,19,14.14-.09.48,0,1.12-.54,1.31-8.34,3-16.74,5.35-25.52,1.63Z"/><path class="cls-24" d="M539.06,284.17c8.77-.26,17.61.12,26.07-2.94l5.1-.91c2.09,8.35-3.56,17.24-11.9,18.73C547.94,300.91,540.07,294.83,539.06,284.17Z"/><path class="cls-52" d="M589.13,298.2q0,19.45,0,38.89c0,.25-.23.5-.35.76l-.78-1c-.28-12.77-.45-25.54.09-38.31Q588.29,297.3,589.13,298.2Z"/><path class="cls-53" d="M589.13,298.2l-1.08.3c-.09-6.37-.34-12.75-.21-19.12.06-3-1.05-3.79-3.71-3.26,1.4-1.62,3.28-.89,5-1,3.23,7.38,2.74,14.78.08,22.18Q589.18,297.75,589.13,298.2Z"/><path class="cls-54" d="M741.13,385.15c-30.28-4.92-51.15-21.35-62-50.3-4.73-12.6-9.15-25.52-18.18-35.85-12.6-14.41-28.24-23.47-47.72-24.94-.91-.67-2.36.3-3-1,13.87-12.33,30.12-20.58,47.28-27.13a165.33,165.33,0,0,1,68-10.68c38,1.93,72,14.87,101.47,39.12,3.46,2.84,6.82,5.8,10.23,8.71l4.11,4.9c-1,2.76-2.63.93-3.53.16-2.66-2.28-5.38-2.06-8.38-.94-35.76,13.34-59.38,38-69.72,75a69.37,69.37,0,0,0-3,18.14c0,1.65-.14,3.36-1.69,4.48-4.29.83-8.63.16-12.94.4Z"/><path class="cls-15" d="M778.1,207.1a27.13,27.13,0,0,1,23-22,74.11,74.11,0,0,0,10,0c13.75,1.64,24.34,14.45,24,29s-11.88,27.09-26,28.09c-15.71,1.12-29.06-8.76-31.18-23.06C778.17,215.15,778.18,211.12,778.1,207.1Z"/><path class="cls-55" d="M610.17,273c1.1.09,2.28-.06,3,1-8.93,6.79-16.47,15-24,23.23q0-11.09-.08-22.18A82.7,82.7,0,0,1,610.17,273Z"/><path class="cls-56" d="M778.1,207.1a14.93,14.93,0,0,1-.12,12.07A19.07,19.07,0,0,1,778.1,207.1Z"/><path class="cls-57" d="M811.11,185.1a11.23,11.23,0,0,1-10,0A16.49,16.49,0,0,1,811.11,185.1Z"/><path class="cls-58" d="M919.15,260l-.86,1a3.33,3.33,0,0,1-3.31-1.55A3.8,3.8,0,0,1,919.15,260Z"/><path class="cls-59" d="M945,304l1,1.85a2.58,2.58,0,0,1-1.48,2.52A4.13,4.13,0,0,1,945,304Z"/><path class="cls-60" d="M955.17,430.11c-4.52,6.67-7.87,14.06-12.92,20.43a101.48,101.48,0,0,1-28.15,24.58c-4.45,1.41-6.37-2.65-9.4-4.33a3.81,3.81,0,0,1-1.19-2.63c.5-2.47,2.71-3.25,4.5-4.34a91.13,91.13,0,0,0,20.08-16.27,11.68,11.68,0,0,0,2.17-2.75c9.61-11.64,15.54-25,18.66-39.7a25.8,25.8,0,0,0,.71-4.33,22.07,22.07,0,0,1,.35-3.07c1.6-7.5-.6-14.81-1.32-22.15-1-9.85-4.68-18.95-9.47-27.58-14.85-25.68-37.13-39.89-66.48-43.51a119.37,119.37,0,0,0-17.37-.46,5.26,5.26,0,0,1-1.42-.39c-2.82-3.1-6.66-5.53-6.89-10.36,8.61-3.54,17.73-2.74,26.47-1.85a99.4,99.4,0,0,1,51.14,20.27c15.74,12,26,27.54,32.83,45.85,3.68,9.93,5.22,20.16,5.68,30.64A131.84,131.84,0,0,1,955.17,430.11Z"/><path class="cls-61" d="M847,293.25l7.2,9.82c-1.3,1.82-3.38,2-5.3,2.4a110.43,110.43,0,0,0-19.09,5.68c-2,1.06-3.92,2.24-6.33,2.15,2.68.23,6.15-2.52,7.79,1.83-1.39,1.57-3.32,1.61-5.1,1.45-5.38-.5-9.62,1.77-13.74,4.88-4.82,3.64-8.95,8-13.16,12.24-2.44,2.48-3,5.18-1,8.12,3.29,5.05,4.85,10.26,3.93,16.52-.69,4.69,3.52,6.64,7.21,8.48,2.75,1.38,6.26,2.67,3.48,7-3,1.5-6.44.17-9.45,1.56-9.31,2.3-18.7,4.26-27.86,7.12-3.36.76-6.6,2.5-10.2,1.13-2.19-5-.29-9.94.85-14.55,9.78-39.55,34.2-65.24,73.55-76.46a12.44,12.44,0,0,1,5.41-.56Z"/><path class="cls-62" d="M845.17,292c-5,3.23-11,3.31-16.34,5.54-32.71,13.6-52.92,37.7-61.28,71.92-1.09,4.46-.85,9.2-2.43,13.59a2.71,2.71,0,0,1-1.33,1.93c-2.78,1-5.55,2.28-8.49.5a.93.93,0,0,1-.18-1.38c0-23.16,8.33-43.48,22.19-61.53a109,109,0,0,1,51.88-37.11c4.1-1.42,7.33-1.67,10,2.17.47.66,1.21,1.23,2,.28Z"/><path class="cls-63" d="M965.12,232.1c-.09,2.06.19,4.18-.89,6.1-.47-1,.12-2.35-1.08-3.08l1-3.05A.63.63,0,0,1,965.12,232.1Z"/><path class="cls-64" d="M905.15,470.07c3.48.8,5.33,4.48,8.95,5.05l2,2c-11,5.77-22.34,10.72-34.59,13.45-6.87,1.53-13.78,1.44-20.7,1.76-.22,0-.48-.75-.72-1.15-.69-4.45,2.71-7.05,4.65-10.32a4.53,4.53,0,0,1,1.39-.64c12.19-1.5,24.08-4.07,35.19-9.54A4.54,4.54,0,0,1,905.15,470.07Z"/><path class="cls-65" d="M865.18,481.21c-.86,3.73-3.59,6.51-5.06,9.93l-1.89,2.11c-1.27-1.52-3-1.1-4.66-1.14-22.42-.62-42-8.86-59.47-22.5a102.32,102.32,0,0,1-32.31-42.18c-5-12.06-8-24.59-7.59-37.73.1-2.85-.43-3.7-3.35-3.69-3.23,0-6.64,1-9.73-.86l0-.16a54.67,54.67,0,0,1,14,0c3.08.65,5.92-1.12,9-.91,2.73.3,1.59,2.47,1.68,3.82,1.15,17.39,5.17,34,14.83,48.68,16.63,25.34,40,39.91,70.27,43.05,4.3.45,8.57,1.26,12.9.25C864.6,479.67,865.42,480,865.18,481.21Z"/><path class="cls-43" d="M548.95,212.1a16.26,16.26,0,0,1,16.16,16.68c-.06,9.38-7.48,16.49-17,16.31a16.5,16.5,0,0,1,.87-33Z"/><path class="cls-66" d="M965.12,232.1l-1,0c.09-1.21-.21-2.59,1.39-3.2C966.53,230.11,966.16,231.14,965.12,232.1Z"/><path class="cls-65" d="M720.44,430.1C742.17,429,762,448,761.94,471.42c0,21.48-17,43.25-45.2,41.88C697.27,512.35,677,494.8,678,469.75,678.75,448.46,696.85,428.75,720.44,430.1Z"/><path class="cls-67" d="M572.69,353.46c-.42,1.47-.71,3-1,4.52C571.21,356.28,570.53,354.57,572.69,353.46Z"/><path class="cls-68" d="M755.11,385l-14,0c4.56-1.84,9.31-.45,14-.87Q755.1,384.54,755.11,385Z"/><path class="cls-69" d="M855.07,303.16c19.71-2.81,37.77,2.15,54.6,12.06,13.1,7.71,23.62,18.1,30.49,31.87-.26,3.7-2.91,3.33-4.31,1.61-5.5-6.73-11.3-5.64-17.55-1.48-1.12.74-2.6.38-3.77,1.07,4.2,4.34,4.28,4.34,8.66.1,2.27-2.19,4.78-3,7.66-1.23,3.15,1.94,3.41,4.92.62,7.31-3.84,3.29-8,4.1-13,2.5-7-2.25-7.06-2.07-11.21,3.64-1.27,1.75-2.77,2.85-5.05,2.44a4.4,4.4,0,0,1-1.91-1.07c-1.4-1.71-2.91-3.38-2.79-5.82,2.43-2.68,7.08-4.47,3.5-9.85-.1,4.19-1.37,7-6,6.38-2.06-.94-3.13-2.88-4.45-4.53-3.5-4.38-7.09-8.65-11.66-12-1.44-1.06-2.84-2.29-3.13-4.26,1.83-3.36,5.94-2.46,8.48-4.53,1.86-1.51,5.55-1.93,5.33-4.54s-3.8-2.67-6.1-3.29c-4-1.08-8-2.13-12-3.37a16.75,16.75,0,0,0-8.31-.63C859.06,312.35,855.51,308.78,855.07,303.16Z"/><path class="cls-69" d="M950.12,405.1c-2.41,15.49-9.18,29-19,41-2.15.09-1.64-1.52-1.65-2.7a15.43,15.43,0,0,1,.52-2.92,3.81,3.81,0,0,0,.11-2.39c-4.7,4.39-4.78,5.21-1,10-6.69,8.72-16,14.11-25,19.94-4.1.39-5.28-3.48-7.82-5.37-1.53-2.4-4-4.27-4.06-7.5a6.72,6.72,0,0,1,2.24-3.83,7.78,7.78,0,0,1,1.85-1.29c5.76-2.63,11.06-6.1,16.56-9.2a8.84,8.84,0,0,0,4.14-6c1.07-4.55,3.86-7.53,7.81-9.82,8-4.65,11.77-17.41,7.7-25.73-1.83-3.74-4.17-7.2-6-10.92-1.31-2.61-3.73-3.62-6.35-4.42-4.13-1.26-8.45-1.94-12.3-4.06a5.59,5.59,0,0,1-1.51-1.72,32.1,32.1,0,0,1-2.21-8c2-5,6.06-7.16,11.43-6,4.25.94,5,1.92,4.85,6.76,2.07-2.36,4.31-4.09,7.47-3.72,2,.23,3.24,1.62,4.14,3.27,1.12,2.05,1.75,4.22-1.11,5.37-2.06.83-1.49,1.54-.79,3.25,3.12,7.64,7.45,14.74,10.13,22.51,1.3,3.76,2.46,5.12,6.17,3.27C947.57,404.34,948.94,404,950.12,405.1Z"/><path class="cls-70" d="M950.12,405.1c-2,.81-4,1.59-6,2.45-2.64,1.16-4.73.09-4.75-2.43,0-6.34-4.54-10.55-6.83-15.79-.52-1.2-1.59-2.18-1.44-3.61.31-2.93-.69-4.92-3.29-6.6-2.44-1.58-2.22-3.53.78-4.65,1.14-.42,4.23,1.56,2.95-1.8-.74-1.94-1.58-5.18-5.15-4.16-1.91.55-3.83,1.06-4.68,3.27a4,4,0,0,1-3.65,2.92c-.19-.27-.56-.58-.5-.76.73-2.39,3.52-5.38,1-7.09-3-2-7.14-2.94-10.67,0-1.1.93-2.74,1.41-2.83,3.23a1.72,1.72,0,0,1-2-.79c-1.07-2.27-2.62-4.46-1.13-7.14a4.25,4.25,0,0,0,4.74-3.54c1.46-5.68,5.11-5.62,9.58-4s9.13,3.24,13.5-.69c1.45-1.3,3.92-2.06,1.81-4.5-1.57-1.82-3.53-3.2-6.06-1.35a7.48,7.48,0,0,0-1.58,1.22c-1.24,1.6-1.15,4.5-4,4.51s-4.33-2.81-6.9-3.61a2.33,2.33,0,0,1-1.09-3.39c.7-1.21,1.59-1.27,2.92-.58,2.67,1.38,4.17-1.34,6.11-2.25,6.85-3.22,9.78-2.78,14.55,2.92,1.5,1.79,2.93,3,4.54.14,6.94,10.64,10.1,22.47,11,35,.25,3.61.75,7.21.93,10.82.09,1.75.57,3.68-.93,5.19-2-1-1.26-5.64-3.09-4.48-2.72,1.72,1.53,3.3,1.94,5.29a5,5,0,0,0,1.11,2.14C951,402.47,951.46,404,950.12,405.1Z"/><path class="cls-71" d="M855.07,303.16,863.22,315c3.29,2.34,5.73,5.13,5,9.57-1.72,2.1-3.89,1.75-5.89.76a111.1,111.1,0,0,0-27.88-8.93,4.45,4.45,0,0,1-1.38-.62c-.8-2.27-4.21-2.72-4-5.71,7.9-4,16.39-5.94,25.12-7Q854.65,303.1,855.07,303.16Z"/><path class="cls-72" d="M897.14,462.07l7,6,1.06,2c-12.13,6.9-25,11-39.13,10.86-.58-5.51,2.24-9.54,5.78-13.25,7,.32,13.26-2.39,19.65-4.59C893.3,462.46,895,461.21,897.14,462.07Z"/><path class="cls-73" d="M929.12,448.11c-4.79-.49-6.16-2.79-3.75-7.08,1.38-2.46,3.81-6.66,5.57-6,3,1.18.2,4.81.12,7.42,0,1.21-1.39,2.44,0,3.63Z"/><path class="cls-69" d="M951.08,401.07c-1.79-1.66-3.67-3.24-5.33-5-.84-.91-1.63-2.16-.48-3.51a4,4,0,0,1,4-1.32c1.77.28,1.8,1.63,1.83,3s0,2.62,0,3.93Z"/><path class="cls-74" d="M775.12,381.16a157.33,157.33,0,0,1,28-7c3.65-1.41,7.63.46,11.26-1.15a8.33,8.33,0,0,1,5.06.45c1.61.23,3.25.44,3.94,2.27-.28,1.1-1.24,1.47-2.1,2-7.46,4.27-10,12.57-5.31,19.85,4.5,7,6.59,13.89,2.79,22-1.46,3.1-1.86,6.72-2.92,10.06-.66,2.08-1,4.16,1.7,6.53.9-6.33,5.7-8.2,10.11-10.5,3.63-1.89,6.63-4.24,8.1-8.36,1.07-3,4.06-4.4,6.72-5.69,5.33-2.58,6.8-7.25,6.64-12.42-.16-5-3.46-7.87-8.08-9.69-6.23-2.45-7.59-5.46-5-9.75,1.92-.78,3.59.07,5.22.88,14.81,7.28,26.17,18.13,33.21,33.1,3.3,7,6.77,14.05,8.49,21.73a118.46,118.46,0,0,1-7.58,28,6.19,6.19,0,0,1-1.47,1.91c-7.19,7.57-15.85,8-25.68,6.57-39.32-5.78-69.39-36.52-73.67-76.17C774,390.84,771.86,385.85,775.12,381.16Z"/><path class="cls-75" d="M819.11,375l-4-.92c-.5-.67-1.56-.26-2-1.05.24-3-1.79-3.94-4.08-4.84-7.89-3.1-9.13-5.29-8-13.86.41-3.12-.61-5.72-2.32-8.38-5.35-8.3-5.2-8.78,1.87-15.83,2.59-2.58,5.23-5.1,7.86-7.63,6.36-6.11,13.88-8.69,22.65-7.41a1.37,1.37,0,0,1,2,0l1,.06a10,10,0,0,0,7.6,2.48c4.12-.24,8,1.93,11.94,3.19,2.56.82,1.92,2.69.49,4.3-1.67,1.87-4.45,2.29-5.92,4.39.17.85.75.59,1.14.43,7.16-3.12,12.69.15,13.72,8.12a4.31,4.31,0,0,1-1.79,4.37c-3,2.13-6,4.6-9.71,4.84-7.58.5-13.17,5.18-19.4,8.55a7.65,7.65,0,0,0-3,3.86c-.7,1.49-1.42,3.28-3.56,2.76-1.69-.41-2-2-2.33-3.51-1-4.72-1.54-5-5.63-2.81-2.22,1.22-4.69,2.26-6.24,4.83C819.16,362,822.14,367.8,819.11,375Z"/><path class="cls-76" d="M775.12,381.16c-.11,21,4.82,40.46,18.15,57.21,14.42,18.13,33.06,28.83,56.1,31.76,2,.25,3.93.58,5.89,1,7.41,1.41,12.62-2.8,17.85-7,1.22,1.74.47,2.89-1.13,3.8l-6,13-.83.28c-15.31,2-29.82-1.31-43.64-7.48-27-12.06-44.76-32.59-53.34-60.91-2.83-9.35-3.77-19-4.14-28.78l1-1Z"/><path class="cls-77" d="M833.12,315.08h-2c-2.63-2.08-5.77-.3-9.21-1.42l7.2-3.57C830.5,311.71,833.06,312.39,833.12,315.08Z"/><path class="cls-78" d="M813.14,373.05l2,1.05H803.09C806.26,372.06,809.81,373.6,813.14,373.05Z"/><path class="cls-79" d="M752.11,471.67c0,18.76-13.85,32.42-32.88,32.44-17.49,0-32.13-14.81-32.12-32.52a32.72,32.72,0,0,1,32.73-32.48C738.36,439.15,752.11,453,752.11,471.67Z"/><path class="cls-80" d="M904.12,369.11l1,1c1.09,2.56,2.21,5.11,2,8-1.66,1.77-3.64,1.15-5.51.61-4-1.15-7.87-2.37-12-.41-1.13.54-2.24-.06-3.07-1a10.86,10.86,0,0,1-1.57-4.18A218.57,218.57,0,0,0,871.18,332a3.57,3.57,0,0,1-.2-3c3.11-1.26,4.21.79,5.13,3.12a71.53,71.53,0,0,1,19,20c2.21.43,3,1.94,3,4l2.91,5.07a9.64,9.64,0,0,1-1.79,1.71c-1.33,1.2-2.11,2.66-1.36,4.42s2.33,1.6,3.86,1.45A3.37,3.37,0,0,1,904.12,369.11Z"/><path class="cls-70" d="M876.11,332.1c-1.76-.72-2.59-2.86-4.69-3a2.22,2.22,0,0,1-1.82-.66,5.79,5.79,0,0,1-1.51-4.29L863.22,315c1.17-1.25,2.32-2.26,4.31-1.67,6.84,2,13.74,3.88,20.58,5.91,1.73.51,3.81,1.15,4.23,3.12.49,2.31-1.85,2.75-3.28,3.79A42.71,42.71,0,0,1,876.11,332.1Z"/><path class="cls-81" d="M904.12,369.11c-2.38,1.38-4.67,2.46-7.26.22-1.88-1.62-.83-3.38-.57-5.05.41-2.64,2.2-3.51,4.73-3.11l1,1Z"/><path class="cls-73" d="M898.11,356.1l-3-4c2.64-.8,6-1,3.86-5.34-.87-1.75.45-2.4,1.73-2.86,1.74-.64,1.59.66,2,1.82C905.1,352.64,904.16,354.92,898.11,356.1Z"/><path class="cls-70" d="M908.13,379.09c.64.16,1.29.3,1.93.48,17.47,4.8,17.44,4.81,25,21.26a11.06,11.06,0,0,1,.85,7.27c-.89,3.87-2,7.71-3.15,11.5a10,10,0,0,1-6.08,6.22c-4.39,1.87-7.45,4.76-8.26,9.72-.61,3.73-2.87,6.15-6.39,7.65-5.44,2.32-9.78,6.86-15.87,7.92-1-2.39.49-4.18,1.51-6,10.53-18.91,14.36-38.91,10-60.28C907.27,382.92,906.59,380.89,908.13,379.09Z"/><path class="cls-81" d="M908.13,379.09q9.45,37.22-10.87,69.79c-.44.7-.75,1.49-1.11,2.23l-1.06.94c-4.72-1.2-7-5.2-5.79-10.6,1.46-6.3,3.24-12.52,5.09-18.72.57-1.91,1.09-3.83,1.54-5.77,1.08-4.64.47-8.58-4.29-11a5.41,5.41,0,0,1-2.22-2c-1.31-2.84-.31-6.08-1.56-8.93-.35-5.58-1.67-11.08-1.49-16.71a2.22,2.22,0,0,1,1-1.36c6.81-3.85,13.2.53,19.79,1Z"/><path class="cls-82" d="M890.14,404.12c7.53,2.46,9.37,5.45,7.46,12.91-2,7.69-3.93,15.41-6.41,22.95-1.74,5.28-.22,9,3.9,12.09l-2,3.07c-4,.19-4.36-3.51-6-5.79-1-2.38-3.07-4.42-2.22-7.35a228,228,0,0,0,3.54-30.94C888.48,408.64,888,406,890.14,404.12Z"/><path class="cls-83" d="M888.12,449.08c1.94,1.78,2.25,4.9,5,6.05.42,2.86,3.32,4.27,4,6.94a76,76,0,0,1-22.33,7.35c-1.58.27-2.57.3-2.83-1.5l1.13-3.8,1-1c2.92-4.92,7.26-8.6,11.15-12.68C886,449.62,886.7,448.53,888.12,449.08Z"/><path class="cls-61" d="M890.14,404.12a192.62,192.62,0,0,1-3,34.67c-.28,1.59,0,3.43-1.92,4.25-3.26-1.73-3.12-4.86-3.25-7.88-4.33-9.16-7.21-19-12.66-27.64a66.29,66.29,0,0,0-33.26-27.34c-4.74,0-9.16-1-12.89-4.13-1.13-1.22-2.67-.82-4.06-1,.79-3.62-2.22-6.69-1.29-10.55.49-2-1.75-2.43-3.55-1.43s-3.75,1.1-4.74-.87c-1.19-2.37.63-3.56,2.53-4.57,2.49-1.32,4.83-2.94,7.38-4.12,3.61-1.68,5.88-.05,5.36,3.89-.21,1.59-.65,3.45.91,3.91,2,.6,2.14-1.63,2.32-3,.26-1.92,1.41-2.83,2.94-3.68,4.35-2.42,8.65-4.91,12.95-7.43a10.4,10.4,0,0,1,5.78-1.12c4.71.12,7.87-3.22,11.57-5.32,1.13-.64,1-2,.44-3.16-.43-.89-1.08-1.67-1.57-2.54-3.82-6.77-3.81-6.77-10.62-3.21-1.3.68-2.74,1.76-3.88-.12-1-1.66,0-3,1.31-3.79,1.8-1.18,3.78-2.07,5.65-3.15.86-.49,1.87-1.11,1.79-2.21s-1.26-1.37-2.26-1.49c-4.56-.56-8.52-4.18-13.81-1.47-2.69,1.38-2.8-2.9-4.21-4.49a91.21,91.21,0,0,1,28,8.45c2,1,3.87,2,6,.53a7.72,7.72,0,0,1,2.17,4,2.84,2.84,0,0,1-1.8.56c-1.55.09-2.54.77-2.1,2.45s1.76,1.62,3.09,1.07a10.87,10.87,0,0,1,2.7-1,177.34,177.34,0,0,1,15.17,46l-.24,1a7.38,7.38,0,0,1-1.8,2.91c-6.6,6.78-6,14.23,1.75,20.12,1.4-1.84-.18-4.76,2.16-6.18C890.77,397.89,889.7,401.08,890.14,404.12Z"/><path class="cls-84" d="M823.17,376a36.29,36.29,0,0,1,12.89,4.13c-1.62,4.61,1.49,6.8,4.89,7.62,10.7,2.58,11.25,12.2,8.06,20.11-1.48,3.67-5.36,4.3-8.18,6.17-2.35,1.56-4.22,3-4.75,5.94-.86,4.8-5.61,5.35-8.82,7.31-3.88,2.37-8.09,3.89-8.32,9.42-.07,1.72-1.34,2.3-2.74.89-1.9-1.92-3.52-3.83-2.48-7,2-6,3.51-12.12,5.46-18.13.82-2.55,1-4.6-.7-7a101.7,101.7,0,0,1-5.62-10C809,388.42,815.14,376.85,823.17,376Z"/><path class="cls-85" d="M882,435.16l3.25,7.88c.92,2,2.7,3.66,2.89,6-4.38,5-8.83,9.9-14.07,14Z"/><path class="cls-86" d="M704.1,488.13c-11.88-10.33-8.71-31.06,5.68-37.35,1.77-.77,3.55-.63,5.36-.69,8.85-.34,13.44,5.45,16.7,12.35,4.37,9.25,1.71,20.6-5.75,27.3-2.56,2.29-5.35,3.89-8.95,3.39-5.33.89-9.72-.68-13-5l.12-.1Z"/><path class="cls-87" d="M717.13,493.13c11-4.65,15.43-11.45,15-23.21-.33-9.07-6.49-16.26-17-19.83,10.84-4,24.19,4,26.66,16.3,3,14.8-7.75,28.66-21.94,27.72A3.51,3.51,0,0,1,717.13,493.13Z"/><path class="cls-88" d="M872.15,331.12c-1.67,2.47-3.42,5.25-6.72,2.33-1.82-1.61-1.44-4.06-.2-5.9,1.77-2.63,3.31.53,5,.52l1.16,1Z"/><path class="cls-75" d="M889.21,395a39.84,39.84,0,0,1-.13,4.46c-.18,1.32,1,3.34-1,3.8-1.62.38-3.15-.65-4.24-2.06-6-7.75-8.05-17.52,3.3-23A59.29,59.29,0,0,1,889.21,395Z"/><path class="cls-89" d="M705.39,462.7c1.43,5.29,4.48,6.15,8.79,4.79-1.05,3.84-3.1,5.07-6,4C704.73,470.32,703.11,467.9,705.39,462.7Z"/><path class="cls-90" d="M711.81,481.14c-4.45,2.75-5.45,2.15-6.07-3.74C707.61,479.54,709,481.55,711.81,481.14Z"/><path class="cls-90" d="M714.79,475.43l5.2,2.44C717.25,479.47,715.92,479,714.79,475.43Z"/><path class="cls-91" d="M715.49,489.76c-2.37.36-3.1-.64-3.29-3.13Z"/><path class="cls-92" d="M704.1,488.13c.23-1.91,1.26-2,2.65-1.12.29.19.59.94.47,1.08-1,1.13-2.08-.21-3.14,0Z"/><path class="cls-93" d="M737.88,470.79c-.56,1-1.37.44-2.07.26s-1.45-.4-1-1.23,1.34-.79,2.13-.51A1.28,1.28,0,0,1,737.88,470.79Z"/><path class="cls-92" d="M731.61,456.14c.34.25.87.45,1,.79a.6.6,0,0,1-.79.79c-.38-.12-.64-.61-.95-.93Z"/></g></g></svg>