<svg width="512" height="512" xmlns="http://www.w3.org/2000/svg">

 <g>
  <title>background</title>
  <rect fill="none" id="canvas_background" height="402" width="582" y="-1" x="-1"/>
 </g>
 <g>
  <title>Layer 1</title>
  <path fill="#032527" id="svg_2" d="m144.281006,181.130997c-0.266998,0.283997 -0.530991,0.569 -0.796997,0.854996c-0.561996,0.606003 -1.119995,1.216003 -1.673004,1.831009c-0.263,0.291 -0.520996,0.585999 -0.779999,0.878998c-0.550003,0.621002 -1.097992,1.242996 -1.638,1.871994c-0.246994,0.289001 -0.490997,0.581009 -0.735992,0.87001c-0.544998,0.644989 -1.089005,1.289993 -1.624008,1.942993c-0.216995,0.264999 -0.429001,0.533005 -0.644989,0.798996c-0.556,0.688004 -1.111008,1.375 -1.654999,2.071014c-0.141006,0.178986 -0.276001,0.360992 -0.415009,0.541c-1.945999,2.510986 -3.819992,5.078995 -5.617004,7.703995c-0.108994,0.160995 -0.223999,0.319992 -0.332993,0.481003c-0.449005,0.660995 -0.887001,1.330002 -1.326004,1.998001c-0.242996,0.369995 -0.488998,0.735992 -0.728996,1.106995c-0.396004,0.612 -0.780998,1.231003 -1.167999,1.850006c-0.272003,0.434998 -0.547005,0.866989 -0.815002,1.304993c-0.364998,0.595993 -0.723,1.197998 -1.081001,1.800003c-0.277,0.466003 -0.556,0.931 -0.827995,1.399002c-0.343002,0.587997 -0.678001,1.179993 -1.013,1.772995c-0.278,0.492004 -0.556999,0.986008 -0.830002,1.481995c-0.320999,0.583008 -0.637001,1.169006 -0.949997,1.756012c-0.274002,0.511993 -0.546005,1.024994 -0.814003,1.541c-0.303001,0.580994 -0.601997,1.164993 -0.898003,1.750992c-0.268997,0.531006 -0.532997,1.065002 -0.796997,1.600998c-0.282997,0.578003 -0.565002,1.156998 -0.843002,1.738998c-0.262001,0.55101 -0.518997,1.104004 -0.774002,1.658005c-0.266998,0.574997 -0.531998,1.151001 -0.792,1.731003c-0.255997,0.569992 -0.504997,1.145004 -0.752998,1.718994c-0.248001,0.570007 -0.495995,1.141006 -0.737,1.714005c-0.250999,0.597992 -0.492996,1.199997 -0.737,1.800995c-0.225998,0.557999 -0.455002,1.113998 -0.675003,1.675003c-0.25,0.637009 -0.488998,1.279007 -0.730995,1.919998c-0.201004,0.533997 -0.408005,1.065002 -0.604004,1.602005c-0.277,0.757996 -0.541,1.520996 -0.806999,2.283997c-0.146996,0.423996 -0.301994,0.843994 -0.445,1.268997c-0.397995,1.17601 -0.781998,2.35701 -1.153,3.544998c-0.139999,0.445007 -0.267998,0.895004 -0.403,1.341003c-0.232002,0.766998 -0.465996,1.533005 -0.686996,2.304001c-0.147003,0.513 -0.283005,1.029007 -0.425003,1.544006c-0.196999,0.71199 -0.394997,1.423996 -0.581001,2.139999c-0.139999,0.537003 -0.270996,1.078003 -0.404999,1.616989c-0.173996,0.699005 -0.348999,1.39801 -0.514,2.101013c-0.129997,0.554993 -0.252998,1.110992 -0.376999,1.667999c-0.154999,0.691986 -0.308998,1.384979 -0.454002,2.079987c-0.118996,0.567017 -0.230995,1.136017 -0.345001,1.70401c-0.136993,0.692993 -0.270996,1.386993 -0.399994,2.083008c-0.105003,0.572998 -0.206001,1.145996 -0.306,1.721985c-0.121002,0.699005 -0.237,1.399017 -0.350006,2.10202c-0.090996,0.573975 -0.18,1.14798 -0.264999,1.724976c-0.104996,0.710022 -0.203995,1.421997 -0.299995,2.136017c-0.077003,0.572998 -0.153,1.145996 -0.223999,1.721985c-0.089005,0.723999 -0.171005,1.449005 -0.25,2.175995c-0.063004,0.569 -0.125,1.138 -0.181999,1.708008c-0.072006,0.744019 -0.136002,1.490997 -0.199005,2.238007c-0.046997,0.556 -0.097,1.110992 -0.138,1.669006c-0.057999,0.786987 -0.103996,1.576996 -0.150002,2.367004c-0.029999,0.520996 -0.065994,1.039978 -0.091995,1.561981c-0.042999,0.882019 -0.071999,1.768005 -0.102005,2.653015c-0.014,0.434998 -0.034996,0.867004 -0.045998,1.302979c-0.031998,1.322998 -0.051003,2.649017 -0.051003,3.980011c0,88.231995 71.781998,160.015015 160.014999,160.015015s160.014984,-71.782013 160.014984,-160.015015c0,-1.330994 -0.017975,-2.657013 -0.050995,-3.980011c-0.01001,-0.434998 -0.031006,-0.866974 -0.04599,-1.302002c-0.028015,-0.885986 -0.058014,-1.771973 -0.101013,-2.653992c-0.026001,-0.520996 -0.061981,-1.040985 -0.09198,-1.561005c-0.046997,-0.790985 -0.093018,-1.580994 -0.151001,-2.367981c-0.040009,-0.558014 -0.091003,-1.112 -0.138,-1.667999c-0.063019,-0.748016 -0.126007,-1.494995 -0.199005,-2.240021c-0.056,-0.569 -0.119019,-1.136993 -0.181,-1.704987c-0.07901,-0.727997 -0.161011,-1.45401 -0.25,-2.179016c-0.071014,-0.573975 -0.145996,-1.145996 -0.223999,-1.718994c-0.096008,-0.714996 -0.195007,-1.427979 -0.300018,-2.139984c-0.084991,-0.574005 -0.173981,-1.14801 -0.264984,-1.721008c-0.112,-0.703003 -0.229004,-1.403992 -0.350006,-2.104004c-0.100006,-0.574982 -0.200989,-1.148987 -0.307007,-1.721985c-0.127991,-0.695007 -0.263,-1.389008 -0.398987,-2.081024c-0.112,-0.567993 -0.226013,-1.136993 -0.345001,-1.703979c-0.145996,-0.695007 -0.299011,-1.389008 -0.45401,-2.082001c-0.123993,-0.557007 -0.246979,-1.113998 -0.377991,-1.667999c-0.164001,-0.701004 -0.338013,-1.397003 -0.511993,-2.094009c-0.13501,-0.541992 -0.266998,-1.084 -0.407013,-1.623993c-0.186981,-0.715012 -0.382996,-1.425003 -0.57901,-2.136002c-0.141998,-0.516006 -0.278992,-1.033005 -0.425995,-1.546997c-0.220978,-0.770004 -0.453979,-1.535004 -0.686005,-2.300003c-0.135986,-0.447998 -0.264984,-0.897995 -0.403992,-1.345001c-0.371002,-1.188004 -0.755005,-2.369003 -1.152985,-3.544998c-0.143005,-0.421997 -0.296021,-0.839005 -0.442017,-1.26001c-0.266998,-0.766998 -0.531982,-1.53299 -0.809998,-2.294998c-0.195007,-0.531998 -0.398987,-1.05899 -0.600006,-1.588989c-0.242981,-0.646011 -0.483978,-1.292007 -0.735992,-1.932999c-0.218994,-0.560013 -0.446991,-1.113007 -0.673004,-1.669006c-0.243988,-0.602997 -0.487,-1.205002 -0.738007,-1.804001c-0.240997,-0.574997 -0.48999,-1.145996 -0.737976,-1.718002c-0.248016,-0.572998 -0.497009,-1.145996 -0.752014,-1.716003c-0.26001,-0.579987 -0.524994,-1.155991 -0.791992,-1.731995c-0.256012,-0.554001 -0.513,-1.106003 -0.774017,-1.656998c-0.276978,-0.581009 -0.55899,-1.160004 -0.842987,-1.737c-0.264008,-0.537003 -0.528992,-1.072006 -0.799011,-1.604996c-0.294983,-0.584 -0.593994,-1.166 -0.895996,-1.746002c-0.269989,-0.516998 -0.541992,-1.031998 -0.815979,-1.546005c-0.313019,-0.587006 -0.629028,-1.171005 -0.949005,-1.753006c-0.274017,-0.496994 -0.552002,-0.98999 -0.830994,-1.483994c-0.334015,-0.591003 -0.669006,-1.182007 -1.01001,-1.768997c-0.274017,-0.472 -0.554993,-0.940002 -0.834015,-1.408997c-0.355988,-0.598999 -0.712982,-1.198013 -1.076996,-1.792999c-0.268982,-0.438004 -0.544006,-0.871002 -0.815979,-1.307007c-0.387024,-0.617004 -0.772003,-1.235001 -1.167023,-1.847c-0.242004,-0.375 -0.490997,-0.744995 -0.735992,-1.117996c-0.437012,-0.66301 -0.871002,-1.328003 -1.316986,-1.985001c-0.119019,-0.175003 -0.241028,-0.346008 -0.361023,-0.520996c-1.78598,-2.609009 -3.64798,-5.162003 -5.58197,-7.657013c-0.143005,-0.18399 -0.282013,-0.369995 -0.426025,-0.554001c-0.540985,-0.691986 -1.092987,-1.375992 -1.645996,-2.05899c-0.218994,-0.270996 -0.43399,-0.542999 -0.653992,-0.813004c-0.533997,-0.651001 -1.075989,-1.294998 -1.619995,-1.938004c-0.247009,-0.291 -0.48999,-0.584 -0.739014,-0.873001c-0.539001,-0.628998 -1.085999,-1.25 -1.634979,-1.869995c-0.261017,-0.294998 -0.520996,-0.589996 -0.78302,-0.882004c-0.552979,-0.61499 -1.112,-1.224991 -1.673981,-1.832001c-0.265015,-0.284988 -0.528015,-0.569 -0.795013,-0.852997c-0.571991,-0.608002 -1.148987,-1.21199 -1.730988,-1.813004c-0.261993,-0.269989 -0.52301,-0.537994 -0.787018,-0.806992c-0.596985,-0.606003 -1.196991,-1.208008 -1.803986,-1.806c-0.25,-0.246002 -0.502014,-0.490997 -0.753998,-0.736008c-0.628998,-0.610992 -1.261993,-1.220001 -1.899994,-1.820999c-0.22702,-0.212997 -0.455017,-0.422989 -0.683014,-0.634995c-0.671997,-0.625 -1.346985,-1.246994 -2.028992,-1.861008c-0.184021,-0.164993 -0.369995,-0.326996 -0.554993,-0.490997c-0.733002,-0.653992 -1.471008,-1.304001 -2.21701,-1.944c-0.093994,-0.080994 -0.190002,-0.160004 -0.285004,-0.240997c-5.32901,-4.554001 -10.959015,-8.764999 -16.857025,-12.597992c-0.01297,-0.009003 -0.024994,-0.018005 -0.038971,-0.026001c-0.929016,-0.604004 -1.866028,-1.195007 -2.809021,-1.779007c-0.095001,-0.059998 -0.188995,-0.119003 -0.283997,-0.179001c-0.904999,-0.559006 -1.816986,-1.106003 -2.734009,-1.647003c-0.130981,-0.077988 -0.263,-0.155991 -0.393982,-0.233002c-0.899994,-0.528 -1.808014,-1.046997 -2.718994,-1.557999c-0.147003,-0.082001 -0.295013,-0.164993 -0.443024,-0.246994c-0.911987,-0.507996 -1.829987,-1.007004 -2.753998,-1.496994c-0.140991,-0.074005 -0.280975,-0.14801 -0.423004,-0.224014c-0.937988,-0.493988 -1.881989,-0.979996 -2.832001,-1.456985c-0.116974,-0.059006 -0.233978,-0.116013 -0.35199,-0.175003c-0.981995,-0.490005 -1.971008,-0.972 -2.964996,-1.442001c-0.061005,-0.028 -0.121002,-0.057007 -0.181,-0.085007c-9.718994,-4.582993 -19.967987,-8.216003 -30.631012,-10.778c-0.015991,-0.003998 -0.030975,-0.007996 -0.046997,-0.011993c-1.144989,-0.274002 -2.292999,-0.535004 -3.444977,-0.785004c-0.070007,-0.016006 -0.141022,-0.031006 -0.212006,-0.046005c-1.126007,-0.241989 -2.256012,-0.472 -3.391022,-0.689987c-0.090973,-0.018005 -0.182983,-0.035004 -0.273987,-0.053009c-1.126007,-0.214996 -2.256989,-0.417999 -3.391998,-0.608002c-0.092987,-0.015991 -0.187012,-0.030991 -0.279999,-0.046997c-1.145996,-0.190002 -2.295013,-0.369995 -3.446991,-0.535995c-0.065002,-0.009003 -0.130005,-0.018005 -0.195007,-0.027008c-1.188019,-0.168991 -2.381012,-0.326996 -3.578003,-0.470993l0,-16.060005c13.371002,-6.942993 22.532013,-20.913994 22.532013,-36.992996c0,-22.976002 -18.690002,-41.666 -41.666016,-41.666c-22.975006,0 -41.664993,18.689999 -41.664993,41.666c0,16.078003 9.159988,30.048996 22.530991,36.992996l0,16.060005c-0.002991,0 -0.00499,0.000992 -0.006989,0.000992c-1.19101,0.143005 -2.378006,0.300003 -3.562012,0.469009c-0.069992,0.009995 -0.140991,0.020004 -0.210999,0.028992c-1.147003,0.166 -2.289993,0.344009 -3.429001,0.533005c-0.10199,0.016998 -0.203003,0.033005 -0.304001,0.050995c-1.126999,0.189011 -2.25,0.391998 -3.368988,0.604004c-0.101013,0.020004 -0.200012,0.037994 -0.300003,0.057999c-1.128006,0.216995 -2.251999,0.445007 -3.371002,0.686996c-0.076004,0.016006 -0.151001,0.033005 -0.227997,0.049011c-1.146011,0.248993 -2.290009,0.509003 -3.429001,0.780991c-0.02301,0.006012 -0.046005,0.012009 -0.069,0.018005c-10.656006,2.563004 -20.900009,6.192993 -30.613007,10.774002c-0.061996,0.028 -0.123001,0.056992 -0.18399,0.085999c-0.993011,0.470001 -1.979004,0.949997 -2.961014,1.440002c-0.118988,0.05899 -0.237991,0.116989 -0.355988,0.177002c-0.948013,0.47699 -1.891998,0.96199 -2.82901,1.455994c-0.141998,0.074997 -0.28299,0.149002 -0.425995,0.225006c-0.923004,0.48999 -1.841995,0.988998 -2.753998,1.496994c-0.145996,0.080994 -0.292999,0.164001 -0.438004,0.244995c-0.912003,0.512009 -1.819,1.029999 -2.720001,1.559006c-0.132996,0.076996 -0.264999,0.156006 -0.397003,0.233994c-0.916992,0.541 -1.827988,1.090012 -2.733002,1.64801c-0.093994,0.057999 -0.186996,0.116989 -0.278992,0.175003c-0.944,0.584991 -1.882996,1.177994 -2.813004,1.781998c-0.013,0.007996 -0.024994,0.016998 -0.037994,0.024002c-5.903,3.83699 -11.537003,8.050995 -16.87001,12.608994c-0.089996,0.076004 -0.181992,0.151001 -0.270996,0.229004c-0.748993,0.643997 -1.488998,1.29599 -2.225998,1.951996c-0.182007,0.162003 -0.365005,0.320999 -0.546005,0.483994c-0.684998,0.615005 -1.360992,1.238007 -2.033997,1.865005c-0.227005,0.210007 -0.453995,0.419998 -0.679001,0.632004c-0.639999,0.60199 -1.272003,1.209991 -1.901993,1.821991c-0.251999,0.244003 -0.503006,0.488998 -0.753006,0.735001c-0.606995,0.598007 -1.209,1.201004 -1.806992,1.809006c-0.262009,0.266998 -0.522003,0.533997 -0.783005,0.802002c-0.578995,0.602997 -1.156998,1.205994 -1.729996,1.815994zm116.556,256.024002c-80.787003,0 -146.514999,-65.72699 -146.514999,-146.514984s65.727997,-146.514023 146.514999,-146.514023c80.787994,0 146.515015,65.725998 146.515015,146.514023s-65.72702,146.514984 -146.515015,146.514984zm5.634003,-308.873001l-11.268005,0l0,-7.186996l11.268005,0l0,7.186996zm-33.799011,-49.558998c0,-15.530998 12.63501,-28.166 28.165009,-28.166s28.165985,12.635002 28.165985,28.166c0,15.528999 -12.635986,28.165001 -28.165985,28.165001s-28.165009,-12.636002 -28.165009,-28.165001z"/>
  <path fill="#032527" id="svg_4" d="m264.572998,286.906006c-1.031006,-1.027985 -2.384003,-1.544006 -3.734985,-1.544006c-1.354004,0 -2.705017,0.516022 -3.736023,1.544006c-0.997986,0.998016 -1.54599,2.322998 -1.54599,3.734009c0,1.410004 0.549988,2.737 1.54599,3.734985c2.062012,2.058014 5.410004,2.058014 7.472015,0c0.994995,-0.997986 1.54599,-2.324982 1.54599,-3.734985c0,-1.411011 -0.548981,-2.735992 -1.54599,-3.731995c-0.001007,-0.000031 -0.001007,-0.000031 -0.001007,-0.002014z"/>
  <path fill="#032527" id="svg_5" d="m323.858002,344.716003l-35.755005,-78.015991c-0.674011,-1.471008 -1.852997,-2.649017 -3.322998,-3.322998l-78.015991,-35.758011c-2.562012,-1.175995 -5.589005,-0.632996 -7.585007,1.363007c-1.994995,1.994003 -2.539001,5.020004 -1.362,7.584l35.755997,78.015991c0.673996,1.471008 1.852997,2.650024 3.324005,3.322998l78.014984,35.758026c0.902008,0.413971 1.858002,0.613983 2.811005,0.613983c1.753998,0 3.480011,-0.682983 4.774017,-1.977997c1.993988,-1.993011 2.537994,-5.019012 1.360992,-7.583008zm-50.93399,-41.988007c-3.330994,3.333008 -7.709991,4.998993 -12.085999,4.998993c-4.377991,0 -8.755997,-1.665985 -12.087006,-4.998993c-3.229004,-3.229004 -5.007996,-7.520996 -5.007996,-12.087006c0,-4.565979 1.778992,-8.858002 5.007996,-12.087006c6.66301,-6.662994 17.507996,-6.662994 24.173004,0c0,0.001007 0,0.001007 0,0.001007c3.229004,3.227997 5.007996,7.520996 5.007996,12.085999s-1.779999,8.858002 -5.007996,12.087006z"/>
  <path fill="#032527" id="svg_6" d="m262.347992,169.975006c-0.561005,-0.151001 -1.140015,-0.257996 -1.748993,-0.257996c-0.615997,0 -1.201996,0.108994 -1.77002,0.263992c-65.621994,1.078003 -118.676987,54.786011 -118.676987,120.660019c0,66.54599 54.139999,120.685974 120.684982,120.685974c66.546021,0 120.686005,-54.139984 120.686005,-120.685974c0,-0.141998 -0.005005,-0.282013 -0.005005,-0.424011c0,-0.019012 0.005005,-0.035004 0.005005,-0.053986c0,-0.02301 -0.006989,-0.045013 -0.006989,-0.068024c-0.294006,-65.790009 -53.497986,-119.309998 -119.167999,-120.119995zm86.862,126.937988l18.614014,0c-3.126007,53.875 -46.218018,97.179016 -99.998016,100.660004l0,-18.799011c0,-3.728973 -3.020996,-6.75 -6.75,-6.75s-6.75,3.021027 -6.75,6.75l0,18.835022c-53.843994,-3.244019 -97.076004,-46.406006 -100.438995,-100.218994l18.578003,0c3.728989,0 6.75,-3.021027 6.75,-6.75s-3.021011,-6.75 -6.75,-6.75l-18.578003,0c3.354004,-53.652008 46.341003,-96.711014 99.96199,-100.183014l0,18.320999c0,3.729004 3.021011,6.75 6.750015,6.75s6.75,-3.020996 6.75,-6.75l0,-18.356995c53.68399,3.235001 96.813995,46.151993 100.402985,99.740982l-18.541992,0c-3.729004,0 -6.75,3.022003 -6.75,6.75c0,3.730011 3.020996,6.751007 6.75,6.751007z"/>
  <path fill="#032527" id="svg_7" d="m279.971008,78.723c0,-10.551003 -8.583984,-19.134998 -19.134003,-19.134998c-10.550995,0 -19.134003,8.583996 -19.134003,19.134998c0,10.549004 8.583008,19.133003 19.134003,19.133003c10.549988,-0.000999 19.134003,-8.584999 19.134003,-19.133003zm-24.768005,0c0,-3.107002 2.527008,-5.635002 5.634003,-5.635002s5.634003,2.527 5.634003,5.635002c0,3.105003 -2.527008,5.633003 -5.634003,5.633003s-5.634003,-2.528 -5.634003,-5.633003z"/>
  <path fill="#032527" id="svg_8" d="m420.595001,219.130005l0.881989,2.095001c1.091003,2.57399 3.58902,4.117004 6.218018,4.117004c0.877991,0 1.770996,-0.171997 2.630981,-0.535995c3.434021,-1.45401 5.036011,-5.417007 3.581024,-8.848999l-0.863007,-2.052017c-1.300018,-3.099991 -2.920013,-6.957993 -4.119019,-9.425003c-1.628998,-3.353989 -5.664978,-4.748993 -9.020996,-3.121002c-3.352997,1.630005 -4.75,5.670013 -3.119995,9.022018c1.033997,2.133987 2.639008,5.956985 3.811005,8.748993z"/>
  <path fill="#032527" id="svg_9" d="m338.072998,131.964005c4.223999,2.14299 8.414001,4.481003 12.449005,6.94899c4.264008,2.60701 8.45401,5.417007 12.449982,8.351013c6.11203,4.485992 11.985016,9.399994 17.45401,14.603989c4.571991,4.354004 8.962006,9.005997 13.048004,13.824005c3.34201,3.947006 6.541016,8.078003 9.506989,12.276001c1.314026,1.862991 3.400024,2.856995 5.519012,2.856995c1.346008,0 2.704987,-0.401001 3.888,-1.237c3.04599,-2.149002 3.770996,-6.360001 1.619995,-9.405991c-3.19101,-4.521011 -6.634003,-8.96701 -10.231995,-13.218002c-4.397003,-5.187012 -9.121002,-10.190002 -14.041016,-14.875c-5.883972,-5.598999 -12.199982,-10.88501 -18.773987,-15.710007c-4.302002,-3.155991 -8.807983,-6.177994 -13.394012,-8.981995c-4.34198,-2.654007 -8.845001,-5.168007 -13.383972,-7.472c-3.326019,-1.688004 -7.387024,-0.359001 -9.074005,2.964996c-1.687012,3.324997 -0.359009,7.388 2.963989,9.074005z"/>
  <path fill="#032527" id="svg_10" d="m91.098,374.57901c3.417,6.958008 7.300003,13.777008 11.538002,20.269012c2.572998,3.940979 5.327995,7.839996 8.188995,11.586975c6.358002,8.328003 13.456001,16.196014 21.095001,23.384003c5.294998,4.984009 10.931,9.71701 16.753998,14.063995c6.214005,4.641022 12.776001,8.947021 19.505005,12.799011c1.059006,0.606018 2.210999,0.894012 3.347992,0.894012c2.34201,0 4.618011,-1.221008 5.864014,-3.397003c1.85199,-3.235016 0.730988,-7.360016 -2.504013,-9.210999c-6.256989,-3.582001 -12.357986,-7.585999 -18.134995,-11.899994c-5.414001,-4.042999 -10.654999,-8.443024 -15.578995,-13.07901c-7.105011,-6.686005 -13.705002,-14.001007 -19.619003,-21.744995c-2.659004,-3.484009 -5.222,-7.109009 -7.613998,-10.774017c-3.941002,-6.03598 -7.549004,-12.372986 -10.727005,-18.839996c-1.643997,-3.346985 -5.689995,-4.727997 -9.032997,-3.082001c-3.346001,1.639984 -4.726997,5.684998 -3.082001,9.031006z"/>
  <path fill="#032527" id="svg_11" d="m214.535995,461.653015c-4.919998,-1.260986 -6.464996,-1.832001 -10.597,-3.35498l-2.011002,-0.739014c-3.494995,-1.282013 -7.376999,0.513 -8.659988,4.014008c-1.282013,3.5 0.514999,7.377991 4.014999,8.659973l1.981995,0.730011c4.345993,1.604004 6.328003,2.334991 11.919998,3.769012c0.563004,0.143982 1.126007,0.211975 1.681,0.211975c3.009003,0 5.751999,-2.026001 6.533997,-5.075989c0.925003,-3.613007 -1.252991,-7.290009 -4.863998,-8.214996z"/>
  <path fill="#032527" id="svg_12" d="m81.358002,350.472992c1.083,2.588013 3.588997,4.145996 6.228996,4.145996c0.869003,0 1.750999,-0.169006 2.603004,-0.523987c3.437996,-1.438019 5.060997,-5.393005 3.620995,-8.832001c-1.827995,-4.373016 -3.005997,-8.433014 -3.016998,-8.473022c-1.028999,-3.580994 -4.762001,-5.651978 -8.348999,-4.621979c-3.583,1.027985 -5.653999,4.765991 -4.625999,8.348999c0.056,0.195007 1.392998,4.825989 3.539001,9.955994z"/>
 </g>
</svg>