<svg xmlns="http://www.w3.org/2000/svg" viewBox="0 0 25.288 20.55"><defs><style>.a{fill:#fff;}</style></defs><path class="a" d="M28.862,12.759a10.323,10.323,0,0,1-2.98.817A5.2,5.2,0,0,0,28.163,10.7a10.386,10.386,0,0,1-3.295,1.26,5.192,5.192,0,0,0-8.84,4.732A14.731,14.731,0,0,1,5.335,11.276,5.195,5.195,0,0,0,6.94,18.2a5.173,5.173,0,0,1-2.35-.649c0,.022,0,.044,0,.066a5.192,5.192,0,0,0,4.162,5.087,5.216,5.216,0,0,1-1.367.182,5.14,5.14,0,0,1-.976-.093,5.194,5.194,0,0,0,4.846,3.6,10.469,10.469,0,0,1-7.681,2.148,14.681,14.681,0,0,0,7.953,2.331A14.66,14.66,0,0,0,26.288,16.115q0-.337-.014-.672A10.508,10.508,0,0,0,28.862,12.759Z" transform="translate(-3.574 -10.326)"/></svg>