<svg width="39" height="39" viewBox="0 0 39 39" fill="none" xmlns="http://www.w3.org/2000/svg">
<circle cx="19.4993" cy="19.4993" r="19.4993" fill="white"/>
<path d="M23.2436 18.4643C23.0343 18.4635 22.8271 18.5056 22.6353 18.588C22.4434 18.6704 22.2711 18.7913 22.1294 18.943C21.9877 19.0946 21.8798 19.2738 21.8126 19.4689C21.7454 19.664 21.7204 19.8708 21.7393 20.076L21.7435 20.1214H21.7891H24.6434H24.6982H24.7273V20.0741L24.748 20.076C24.7669 19.8708 24.7419 19.664 24.6747 19.4689C24.6075 19.2738 24.4996 19.0946 24.3579 18.943C24.2162 18.7913 24.0439 18.6704 23.852 18.588C23.6601 18.5056 23.4529 18.4635 23.2436 18.4643ZM23.2436 18.4643C23.2436 18.4643 23.2435 18.4643 23.2434 18.4643L23.2436 18.5143L23.2438 18.4643C23.2438 18.4643 23.2437 18.4643 23.2436 18.4643ZM18.699 17.2857L18.6991 17.2878C18.7187 17.7508 18.5697 18.2056 18.2786 18.5707C17.9874 18.9357 17.5733 19.1871 17.1102 19.2795L17.12 19.3286L17.1188 19.3786C17.4064 19.3857 17.6897 19.4492 17.952 19.5652C18.2143 19.6812 18.4503 19.8475 18.6462 20.0542C18.8421 20.261 18.994 20.504 19.093 20.769C19.192 21.034 19.2361 21.3157 19.2228 21.5976L19.2227 21.5976V21.6C19.2227 22.412 18.8672 23.0512 18.2789 23.4977C17.6894 23.9451 16.8641 24.2001 15.9263 24.2357H12.05V15.05H15.9273C16.7704 15.05 17.4637 15.2624 17.9452 15.6462C18.4254 16.0291 18.6991 16.5858 18.699 17.2857ZM13.8327 16.2643H13.7827V16.3143V18.8V18.85H13.8327H15.0691C15.7075 18.85 16.1744 18.7205 16.4828 18.4882C16.7934 18.2542 16.9373 17.9206 16.9373 17.5286C16.9373 17.1382 16.8056 16.82 16.5567 16.6C16.3087 16.3808 15.9501 16.2643 15.5055 16.2643H13.8327ZM13.7827 22.8429V22.8929H13.8327H15.2291H15.2873V22.8926C16.0021 22.8868 16.5191 22.7723 16.8604 22.5452C17.2152 22.3092 17.3736 21.9561 17.3736 21.5C17.3736 21.0449 17.2162 20.6729 16.9143 20.4155C16.6134 20.159 16.175 20.0214 15.6218 20.0214H13.8327H13.7827V20.0714V22.8429ZM20.0064 20.4286H20.0065L20.0062 20.425C19.9759 19.9987 20.0397 19.571 20.1935 19.1712C20.3472 18.7714 20.5872 18.4089 20.897 18.1086C21.2069 17.8083 21.5792 17.5773 21.9886 17.4315C22.398 17.2857 22.8347 17.2286 23.2687 17.2641L23.2727 17.2143L23.2759 17.2642C23.7098 17.2367 24.1446 17.3011 24.5509 17.4531C24.9572 17.605 25.3254 17.8409 25.6307 18.1447C25.9359 18.4485 26.1711 18.8132 26.3203 19.2139C26.4695 19.6146 26.5293 20.0421 26.4956 20.4675L26.4955 20.4675V20.4714V21.0929H21.7455H21.6955V21.1429V21.34C21.6701 21.5634 21.6936 21.7895 21.7644 22.0032C21.8355 22.2179 21.9526 22.415 22.1077 22.5813C22.2628 22.7477 22.4524 22.8793 22.6636 22.9676C22.8734 23.0552 23.0998 23.0979 23.3277 23.0929C23.6502 23.1411 23.9797 23.0737 24.256 22.9027C24.5229 22.7376 24.7228 22.4866 24.8219 22.1929H26.4824C26.3211 22.8493 25.9238 23.4275 25.3623 23.8204C24.7835 24.2253 24.0717 24.4041 23.3658 24.3218L23.3659 24.3207L23.3555 24.3216C22.909 24.3619 22.4589 24.3059 22.0368 24.1575C21.6147 24.0092 21.2307 23.772 20.9118 23.4628C20.5928 23.1535 20.3465 22.7796 20.1902 22.3673C20.0338 21.9549 19.971 21.514 20.0062 21.0754L20.0064 21.0754V21.0714V20.4286ZM21.1409 15.6929H25.4045V16.3071H21.1409V15.6929Z" fill="#293647" stroke="white" stroke-width="0.1"/>
</svg>
