<svg xmlns="http://www.w3.org/2000/svg" viewBox="0 0 50.44 50.44"><defs><style>.cls-1{fill:#fff;stroke:#fff;stroke-miterlimit:10;}</style></defs><title>Asset 1</title><g id="Layer_2" data-name="Layer 2"><g id="Layer_1-2" data-name="Layer 1"><path id="svg_1" data-name="svg 1" class="cls-1" d="M49.44,20.24A24.73,24.73,0,1,0,7.74,42.7a25,25,0,0,0,3.66,3,24.71,24.71,0,0,0,31.3-3,25.09,25.09,0,0,0,3-3.66,24.8,24.8,0,0,0,3.72-18.8ZM46.32,25a48.87,48.87,0,0,0-14.7-.69l-.45-1.09c-.44-1-.91-2.06-1.4-3.06,8.34-3.4,11.72-8.3,11.76-8.35A21,21,0,0,1,46.32,25ZM39.16,9.38c-.05.08-3.06,4.66-11,7.65A107.24,107.24,0,0,0,20.24,4.7,21.08,21.08,0,0,1,39.16,9.38Zm-19-4.65H20.1Zm-4,1.4a126.92,126.92,0,0,1,7.84,12.16A78.09,78.09,0,0,1,4.56,20.87,21.14,21.14,0,0,1,16.21,6.13ZM4.11,25.22c0-.23,0-.44,0-.67a77.41,77.41,0,0,0,21.67-3c.61,1.18,1.18,2.39,1.71,3.59l-.83.25C15.29,29.07,9.51,39.32,9.51,39.32h0A21,21,0,0,1,4.11,25.22ZM25.22,46.33a21,21,0,0,1-13.45-4.84l.47.37s4-8.83,16.57-13.19l.14,0a87.85,87.85,0,0,1,4.51,16A21,21,0,0,1,25.22,46.33ZM37,42.73a91.31,91.31,0,0,0-4.11-15.08,30.59,30.59,0,0,1,13.16.92A21.13,21.13,0,0,1,37,42.73Z"/></g></g></svg>