<svg width="27" height="27" viewBox="0 0 27 27" fill="none" xmlns="http://www.w3.org/2000/svg">
<path d="M0 18.9C0 18.1544 0.604416 17.55 1.35 17.55C2.04233 17.55 2.61293 18.0712 2.69092 18.7426L2.7 18.9L2.7 24.3H8.1C8.79233 24.3 9.36294 24.8212 9.44092 25.4926L9.45 25.65C9.45 26.3423 8.92885 26.9129 8.25744 26.9909L8.1 27H1.35C0.657672 27 0.0870653 26.4788 0.00908244 25.8074L0 25.65L0 18.9Z" fill="black"/>
<path d="M25.65 27L25.8075 26.9909C26.4272 26.9189 26.919 26.4272 26.991 25.8074L27 25.65V18.9L26.991 18.7426C26.919 18.1228 26.4272 17.6311 25.8075 17.5591L25.65 17.55L25.4926 17.5591C24.8728 17.6311 24.3811 18.1228 24.3091 18.7426L24.3 18.9V24.3H18.9L18.7426 24.3091C18.0712 24.3871 17.55 24.9577 17.55 25.65C17.55 26.3423 18.0712 26.9129 18.7426 26.9909L18.9 27H25.65Z" fill="black"/>
<path d="M1.35 9.4502L1.50744 9.44111C2.1272 9.36913 2.61893 8.87739 2.69092 8.25763L2.7 8.1002V2.7002H8.1L8.25744 2.69111C8.92885 2.61313 9.45 2.04252 9.45 1.35019C9.45 0.657866 8.92885 0.0872602 8.25744 0.00927734L8.1 0.000195503H1.35L1.19256 0.00927734C0.572801 0.0812616 0.0810666 0.572996 0.00908244 1.19276L0 1.35019V8.1002L0.00908244 8.25763C0.0810666 8.87739 0.572801 9.36913 1.19256 9.44111L1.35 9.4502Z" fill="black"/>
<path d="M25.65 9.4502C26.3424 9.4502 26.913 8.92904 26.991 8.25763L27 8.1002V1.35019C27 0.657866 26.4789 0.0872602 25.8075 0.00927734L25.65 0.000195503H18.9C18.1545 0.000195503 17.55 0.60461 17.55 1.35019C17.55 2.04252 18.0712 2.61313 18.7426 2.69111L18.9 2.7002H24.3V8.1002C24.3 8.79252 24.8212 9.36313 25.4926 9.44111L25.65 9.4502Z" fill="black"/>
</svg>
