<svg width="39" height="39" viewBox="0 0 39 39" fill="none" xmlns="http://www.w3.org/2000/svg">
<circle cx="19.4993" cy="19.4993" r="19.4993" fill="white"/>
<path fill-rule="evenodd" clip-rule="evenodd" d="M19.5 14C16.4635 14 14 16.4635 14 19.5C14 22.5365 16.4635 25 19.5 25C22.5305 25 25 22.5365 25 19.5C25 16.4635 22.5305 14 19.5 14ZM23.1328 16.535C23.8099 17.3597 24.1847 18.3912 24.1947 19.4583C24.0398 19.4285 22.4888 19.1122 20.9259 19.3093C20.8897 19.2314 20.8599 19.148 20.8241 19.0646C20.7269 18.8351 20.6236 18.6083 20.5143 18.3844C22.244 17.6804 23.0315 16.6666 23.1328 16.535V16.535ZM19.5 14.8117C20.693 14.8117 21.7848 15.2586 22.6139 15.9924C22.5305 16.1115 21.8205 17.0603 20.1504 17.6864C19.3804 16.2729 18.5279 15.1151 18.3963 14.9364C18.7581 14.8519 19.1285 14.8099 19.5 14.8113V14.8117ZM17.5017 15.2526C17.6268 15.4199 18.4619 16.5832 19.2433 17.9669C17.0479 18.5517 15.1092 18.5398 14.9006 18.5398C15.205 17.0841 16.1895 15.8732 17.5017 15.2526ZM14.7993 19.506V19.363C15.0024 19.3689 17.2808 19.3987 19.6256 18.6947C19.7626 18.9573 19.8878 19.2255 20.0069 19.494C19.9473 19.5119 19.8818 19.5298 19.8222 19.5477C17.4004 20.3291 16.1115 22.4645 16.0043 22.6437C15.2285 21.7827 14.7992 20.6649 14.7993 19.506V19.506ZM19.5 24.2007C18.4142 24.2007 17.4123 23.8308 16.6189 23.2107C16.7023 23.0374 17.6566 21.2 20.3053 20.2755C20.3172 20.2695 20.3236 20.2695 20.3351 20.2636C20.9974 21.9755 21.2655 23.4133 21.3375 23.8248C20.7705 24.0696 20.1504 24.2007 19.5 24.2007ZM22.1189 23.3954C22.0713 23.1089 21.8205 21.7371 21.2059 20.0486C22.6795 19.8162 23.9678 20.198 24.1292 20.2517C23.9261 21.5579 23.1745 22.6854 22.1189 23.3954Z" fill="#293647"/>
</svg>
