<svg xmlns="http://www.w3.org/2000/svg" viewBox="0 0 24.6 24.6"><defs><style>.a{fill:#fff;}</style></defs><g transform="translate(0)"><path class="a" d="M21.748,16.7A6.348,6.348,0,1,0,28.1,23.048,6.361,6.361,0,0,0,21.748,16.7Zm0,10.415a4.067,4.067,0,1,1,4.067-4.067A4.085,4.085,0,0,1,21.748,27.115Z" transform="translate(-9.448 -10.798)"/><ellipse class="a" cx="1.438" cy="1.438" rx="1.438" ry="1.438" transform="translate(17.458 4.315)"/><path class="a" d="M26.016,6.833A7.063,7.063,0,0,0,20.808,4.8H10.592A6.794,6.794,0,0,0,3.4,11.992V22.159a7.136,7.136,0,0,0,2.083,5.307A7.238,7.238,0,0,0,10.641,29.4H20.759a7.323,7.323,0,0,0,5.208-1.934A7.1,7.1,0,0,0,28,22.208V11.992A7.11,7.11,0,0,0,26.016,6.833Zm-.2,15.375a4.846,4.846,0,0,1-1.438,3.621,5.127,5.127,0,0,1-3.621,1.29H10.641a5.127,5.127,0,0,1-3.621-1.29,4.985,4.985,0,0,1-1.339-3.67V11.992A4.944,4.944,0,0,1,7.021,8.371a5.044,5.044,0,0,1,3.621-1.29H20.858a4.944,4.944,0,0,1,3.621,1.339,5.118,5.118,0,0,1,1.339,3.571V22.208Z" transform="translate(-3.4 -4.8)"/></g></svg>