<svg xmlns="http://www.w3.org/2000/svg" viewBox="0 0 30 33"><defs><style>.a{fill:none;}.b,.d{fill:#fff;}.c,.d{stroke:none;}</style></defs><g transform="translate(-1614 -121)"><g class="a" transform="translate(1614 136.648)"><path class="c" d="M15,0c8.284,0,15,5.493,15,12.27s-30,6.776-30,0S6.716,0,15,0Z"/><path class="d" d="M 14.99999904632568 13.35177040100098 C 17.78739929199219 13.35177040100098 20.51830863952637 13.09392070770264 22.68966865539551 12.62573051452637 C 24.42277145385742 12.25203132629395 25.44588470458984 11.81866550445557 25.95516395568848 11.5313606262207 C 25.73756790161133 9.744052886962891 24.73376846313477 8.047428131103516 23.07403945922852 6.689820766448975 C 20.9534797668457 4.955260753631592 18.0860595703125 4.000000476837158 14.99999904632568 4.000000476837158 C 11.91393947601318 4.000000476837158 9.04651927947998 4.955260753631592 6.92595911026001 6.689820766448975 C 5.266230583190918 8.047428131103516 4.262430191040039 9.744052886962891 4.044834613800049 11.5313606262207 C 4.554113864898682 11.81866550445557 5.577226161956787 12.25203132629395 7.310328960418701 12.62573051452637 C 9.481689453125 13.09392070770264 12.21259880065918 13.35177040100098 14.99999904632568 13.35177040100098 M 14.99999904632568 17.35176849365234 C 7.499999046325684 17.35176849365234 -9.5367431640625e-07 15.65769577026367 -9.5367431640625e-07 12.26955032348633 C -9.5367431640625e-07 5.493270397186279 6.715729236602783 6.085205086492351e-07 14.99999904632568 6.085205086492351e-07 C 23.28426933288574 6.085205086492351e-07 30 5.493270397186279 30 12.26955032348633 C 30 15.65769577026367 22.5 17.35176849365234 14.99999904632568 17.35176849365234 Z"/></g><circle class="b" cx="6" cy="6" r="6" transform="translate(1623 121)"/></g></svg>