<svg width="128" height="128" xmlns="http://www.w3.org/2000/svg">

 <g>
  <title>background</title>
  <rect fill="none" id="canvas_background" height="402" width="582" y="-1" x="-1"/>
 </g>
 <g>
  <title>Layer 1</title>
  <path fill="#032527" stroke="#032527" id="svg_1" d="m105.051003,61.439999l-82.026003,0c-2.879,0 -5.220999,-2.341 -5.220999,-5.218998l0,-15.636002c0,-2.877998 2.341999,-5.219997 5.220999,-5.219997l82.025003,0c2.877998,0 5.218994,2.341999 5.218994,5.219997l0,15.637001c0.000999,2.876999 -2.339996,5.217999 -5.217995,5.217999zm-82.026003,-22.074997c-0.661999,0 -1.220999,0.558998 -1.220999,1.219997l0,15.637001c0,0.672001 0.547998,1.219002 1.220999,1.219002l82.025003,0c0.671997,0 1.218994,-0.547001 1.218994,-1.219002l0,-15.637001c0,-0.661999 -0.558998,-1.219997 -1.218994,-1.219997l-82.025003,0z"/>
  <path fill="#032527" stroke="#032527" id="svg_2" d="m93.612,115.005997l-59.152,0c-5.542,0 -10.050999,-4.507996 -10.050999,-10.050995l0,-45.515003c0,-1.104 0.896,-2 2,-2s2,0.896 2,2l0,45.515003c0,3.336998 2.715,6.050995 6.050999,6.050995l59.152,0c3.334999,0 6.049004,-2.713997 6.049004,-6.050995l0,-45.515003c0,-1.104 0.895996,-2 2,-2s2,0.896 2,2l0,45.515003c0,5.542999 -4.508003,10.050995 -10.049004,10.050995z"/>
  <path fill="#032527" stroke="#032527" id="svg_3" d="m64.037003,115.005997c-1.104004,0 -2.000004,-0.894997 -2.000004,-2l0,-53.565998c0,-1.104 0.896,-2 2.000004,-2s2,0.896 2,2l0,53.564999c0,1.106003 -0.895004,2.000999 -2,2.000999z"/>
  <path fill="#032527" stroke="#032527" id="svg_5" d="m39.075001,39.358002c-6.260002,-3.392002 -8.596001,-11.244001 -5.207001,-17.505001c3.387001,-6.258 11.237999,-8.595 17.500999,-5.209002c9.541,5.168001 14.692997,19.586 14.907001,20.197001l-3.773003,1.327c-0.047997,-0.135998 -4.861,-13.577 -13.036999,-18.005999c-4.325001,-2.338001 -9.743,-0.724001 -12.079998,3.594999c-2.339001,4.323 -0.727001,9.743 3.595997,12.084l-1.906998,3.517002z"/>
  <path fill="#032527" stroke="#032527" id="svg_6" d="m88.995003,39.358002l-1.903999,-3.518002c2.094994,-1.134998 3.621994,-3.015999 4.301994,-5.297001c0.679001,-2.282 0.428001,-4.691999 -0.707001,-6.785c-1.131996,-2.094999 -3.011993,-3.621 -5.292999,-4.299999c-2.281998,-0.679001 -4.689995,-0.429001 -6.783997,0.704c-8.176003,4.427999 -12.988998,17.868998 -13.037003,18.004999l-3.772999,-1.327c0.214001,-0.611 5.365002,-15.028999 14.906002,-20.196001c3.031998,-1.641999 6.525002,-2.003999 9.828995,-1.02c3.307007,0.983001 6.030006,3.196 7.671005,6.229001c1.642998,3.032 2.005997,6.522999 1.021996,9.83c-0.985001,3.305998 -3.197998,6.031 -6.231995,7.675001z"/>
  <path fill="#032527" stroke="#032527" id="svg_7" d="m101.661003,88.223999l-75.252003,0c-1.104,0 -2,-0.895996 -2,-2s0.896,-2 2,-2l75.252003,0c1.103996,0 2,0.896004 2,2s-0.895004,2 -2,2z"/>
 </g>
</svg>