<svg width="512" height="512" xmlns="http://www.w3.org/2000/svg">

 <g>
  <title>background</title>
  <rect fill="none" id="canvas_background" height="402" width="582" y="-1" x="-1"/>
 </g>
 <g>
  <title>Layer 1</title>
  <path fill="#2a2a2a" id="XMLID_102_" d="m169.399994,203c12.099991,0 23.099991,1 33.099991,3.199997c9.900009,2.100006 18.400009,5.600006 25.600006,10.5c7.100006,4.800003 12.600006,11.300003 16.5,19.300003s5.800003,18 5.800003,29.799988c0,12.800018 -2.900009,23.400024 -8.699997,32c-5.800003,8.5 -14.400009,15.5 -25.900009,20.900024c15.600006,4.5 27.199997,12.399994 34.800003,23.599976c7.699997,11.300018 11.499985,24.800018 11.499985,40.700012c0,12.899994 -2.5,23.899994 -7.399979,33.200012c-5,9.399994 -11.700012,17.099976 -20.100006,23c-8.399994,5.899994 -18,10.299988 -28.800003,13.199982c-10.699997,2.800018 -21.800003,4.300018 -33.099991,4.300018l-122.799995,0l0,-253.700012l119.499992,0zm-7.199997,102.399994c9.900009,0 18.100006,-2.300018 24.600006,-7.100006c6.399994,-4.700012 9.5,-12.399994 9.5,-23.100006c0,-5.899994 -1,-10.799988 -3.100006,-14.600006c-2.199997,-3.799988 -5,-6.699982 -8.599991,-8.799988c-3.600006,-2.199997 -7.600006,-3.599991 -12.300003,-4.5c-4.600006,-0.899994 -9.400009,-1.300003 -14.400009,-1.300003l-52.199997,0l0,59.300003l56.5,0l0,0.100006zm3.100006,108c5.5,0 10.699997,-0.5 15.699997,-1.600006s9.399994,-2.799988 13.199997,-5.399994c3.699997,-2.5 6.800003,-5.800018 9.100006,-10.100006c2.300003,-4.299988 3.300003,-9.799988 3.300003,-16.399994c0,-13.100006 -3.700012,-22.300018 -11,-28c-7.300003,-5.600006 -17.100006,-8.300018 -29.100006,-8.300018l-60.699997,0l0,69.800018l59.5,0l0,0z"/>
  <path fill="#2a2a2a" id="XMLID_99_" d="m341.799988,412.5c7.600006,7.399994 18.5,11.100006 32.600006,11.100006c10.199982,0 19,-2.600006 26.299988,-7.700012s11.800018,-10.600006 13.5,-16.299988l44.399994,0c-7.099976,22.100006 -18,37.899994 -32.699982,47.399994c-14.600006,9.5 -32.400024,14.299988 -53.200012,14.299988c-14.5,0 -27.5,-2.299988 -39.200012,-7s-21.399994,-11.199982 -29.599976,-19.699982c-8,-8.600006 -14.200012,-18.700012 -18.600006,-30.600006c-4.399994,-11.799988 -6.600006,-24.899994 -6.600006,-39.100006c0,-13.699982 2.299988,-26.600006 6.799988,-38.399994c4.600006,-11.899994 10.900024,-22.200012 19.200012,-30.799988c8.300018,-8.700012 18.200012,-15.5 29.799988,-20.5c11.5,-5 24.200012,-7.5 38.300018,-7.5c15.5,0 29.100006,3 40.799988,9.099976c11.600006,6 21.100006,14.100006 28.600006,24.300018c7.5,10.199982 12.799988,21.799988 16.100006,34.799988c3.299988,13 4.5,26.600006 3.5,40.899994l-132.5,0c0,14.600006 4.900024,28.400024 12.5,35.700012zm57.900024,-96.399994c-6,-6.600006 -16.100006,-10.199982 -28.5,-10.199982c-8.100006,0 -14.700012,1.399994 -20.100006,4.099976c-5.199982,2.700012 -9.5,6.100006 -12.799988,10.100006c-3.300018,4.100006 -5.5,8.399994 -6.800018,12.899994s-2.099976,8.5 -2.299988,12.100006l82.100006,0c-1.100006,-12.800018 -5.500031,-22.300018 -11.600006,-29z"/>
  <rect fill="#2a2a2a" y="220" x="319" width="102.8" id="XMLID_98_" height="25"/>
 </g>
</svg>