<svg width="56.693" height="56.693" xmlns="http://www.w3.org/2000/svg">

 <g>
  <title>background</title>
  <rect fill="none" id="canvas_background" height="402" width="582" y="-1" x="-1"/>
 </g>
 <g>
  <title>Layer 1</title>
  <path fill="#2a2a2a" id="svg_1" fill-rule="evenodd" d="m52.43,24.152c-0.324001,-1.588001 -0.811001,-3.152 -1.441002,-4.646c-0.618999,-1.467001 -1.386997,-2.879 -2.278999,-4.199c-0.884998,-1.309 -1.899998,-2.539001 -3.017998,-3.656c-1.117001,-1.119 -2.348,-2.135 -3.656002,-3.018c-1.32,-0.895 -2.734001,-1.66 -4.198997,-2.281c-1.494003,-0.629 -3.057003,-1.117 -4.646,-1.439c-1.627003,-0.334 -3.303001,-0.504 -4.977001,-0.504c-1.676001,0 -3.35,0.17 -4.979,0.504c-1.588001,0.322 -3.152,0.811 -4.645,1.439c-1.465,0.621 -2.879,1.387 -4.201,2.281c-1.309,0.882999 -2.539,1.898 -3.656,3.018c-1.118,1.117 -2.132,2.348 -3.016,3.656c-0.893,1.320001 -1.66,2.731999 -2.279,4.199c-0.633,1.493999 -1.118,3.057999 -1.443,4.646c-0.333,1.625 -0.502,3.300999 -0.502,4.976c0,1.677999 0.169,3.353998 0.502,4.980001c0.325,1.587997 0.811,3.151997 1.442,4.644997c0.619,1.465 1.387,2.881001 2.279,4.201c0.884,1.309002 1.898,2.537003 3.016,3.656002c1.117,1.117001 2.348,2.131001 3.655999,3.015999c1.322001,0.893002 2.736001,1.66 4.201001,2.278999c1.491999,0.632999 3.056999,1.115002 4.644999,1.441002c1.629002,0.335999 3.303001,0.503998 4.979,0.503998c1.674,0 3.35,-0.167999 4.976999,-0.503998c1.59,-0.326 3.152,-0.809002 4.646,-1.441002c1.465,-0.618999 2.879002,-1.386997 4.199001,-2.278999c1.309002,-0.884998 2.539001,-1.897999 3.656002,-3.015999c1.116997,-1.118999 2.132999,-2.348 3.017998,-3.656002c0.893002,-1.32 1.66,-2.736 2.278999,-4.201c0.631001,-1.491997 1.117001,-3.056999 1.441002,-4.644997c0.334,-1.627003 0.501999,-3.303001 0.501999,-4.980001c0.000999,-1.675001 -0.167,-3.351 -0.500999,-4.976zm-3.113998,4.767c-0.305,-0.066 -7.449001,-1.604 -14.703003,-0.692001c-0.147999,-0.361 -0.299,-0.724998 -0.454998,-1.09c-0.438999,-1.032999 -0.912003,-2.056999 -1.403999,-3.061998c8.337997,-3.402 11.723,-8.297001 11.761997,-8.355c2.961002,3.593999 4.752003,8.188001 4.800003,13.199zm-7.160004,-15.634001c-0.052998,0.082 -3.058998,4.658001 -11.026999,7.645c-3.608999,-6.631001 -7.573999,-11.898001 -7.890999,-12.316c1.595999,-0.387 3.259998,-0.596001 4.974998,-0.596001c5.345999,0 10.223001,1.992001 13.942999,5.267zm-18.999998,-4.654c0,0.002001 -0.004,0.004001 -0.004,0.004001s-0.023001,0.006 -0.062,0.014c0.021,-0.006001 0.045,-0.01 0.066,-0.018001zm-3.951,1.404c0.281,0.377 4.186001,5.67 7.84,12.164c-10.136999,2.693001 -18.934,2.588001 -19.492,2.578001c1.372,-6.539 5.765,-11.961 11.652,-14.742001zm-12.103,19.093c0,-0.225 0.01,-0.445 0.018,-0.667c0.372,0.007999 10.804,0.244999 21.672999,-3.008001c0.605001,1.184 1.184,2.387001 1.713001,3.589001c-0.279001,0.078001 -0.557001,0.162001 -0.832001,0.252001c-11.393,3.682001 -17.172,13.934 -17.172,13.934s0.008,0.006001 0.008,0.009998c-3.361,-3.740997 -5.408,-8.686001 -5.408,-14.109999zm21.110999,21.113001c-5.108999,0 -9.795,-1.816002 -13.447,-4.838001c0.277,0.224998 0.473001,0.368999 0.473001,0.368999s4.046999,-8.826 16.566,-13.188c0.046999,-0.017998 0.094,-0.030998 0.140999,-0.044998c2.971001,7.718998 4.197002,14.183998 4.510002,16.028999c-2.534,1.077999 -5.319002,1.673 -8.243002,1.673zm11.796999,-3.601002c-0.215,-1.274998 -1.34,-7.471001 -4.108997,-15.08c6.813999,-1.09 12.721001,0.779001 13.155998,0.921999c-0.939999,5.882 -4.306999,10.956001 -9.047001,14.158001z" clip-rule="evenodd"/>
 </g>
</svg>