<svg width="56.7" height="56.7" xmlns="http://www.w3.org/2000/svg">

 <g>
  <title>background</title>
  <rect fill="none" id="canvas_background" height="402" width="582" y="-1" x="-1"/>
 </g>
 <g>
  <title>Layer 1</title>
  <path fill="#2a2a2a" id="svg_2" d="m28.200001,16.700001c-7,0 -12.8,5.700001 -12.8,12.800001s5.7,12.799997 12.8,12.799997s12.799999,-5.799999 12.799999,-12.799999s-5.799999,-12.799999 -12.799999,-12.799999zm0,21c-4.5,0 -8.199999,-3.700001 -8.199999,-8.199999s3.699999,-8.200001 8.199999,-8.200001s8.200001,3.700001 8.200001,8.200001s-3.700001,8.199999 -8.200001,8.199999z"/>
  <circle fill="#2a2a2a" id="svg_3" r="2.9" cy="16.4" cx="41.5"/>
  <path fill="#2a2a2a" id="svg_4" d="m49,8.9c-2.599998,-2.7 -6.299999,-4.099999 -10.5,-4.099999l-20.6,0c-8.7,0 -14.5,5.8 -14.5,14.499999l0,20.5c0,4.299999 1.4,8 4.199999,10.700001c2.7,2.599998 6.300001,3.900002 10.399999,3.900002l20.4,0c4.300003,0 7.900002,-1.400002 10.5,-3.900002c2.700001,-2.599998 4.100002,-6.299999 4.100002,-10.600002l0,-20.599998c0,-4.199999 -1.400002,-7.799999 -4,-10.4zm-0.400002,31.000002c0,3.099998 -1.100002,5.599998 -2.900002,7.299999s-4.299999,2.600002 -7.299999,2.600002l-20.399998,0c-3,0 -5.5,-0.900002 -7.3,-2.600002c-1.8,-1.799999 -2.7,-4.299999 -2.7,-7.400002l0,-20.5c0,-3 0.9,-5.5 2.7,-7.3c1.7,-1.7 4.3,-2.6 7.3,-2.6l20.600002,0c3,0 5.5,0.900001 7.299999,2.700001c1.700001,1.799999 2.700001,4.3 2.700001,7.2l0,20.600002l-0.000004,0z"/>
 </g>
</svg>