<svg width="151" height="151" viewBox="0 0 151 151" fill="none" xmlns="http://www.w3.org/2000/svg">
<circle cx="75.5" cy="75.5" r="75.5" fill="white"/>
<path d="M38.0014 84.384C37.1374 84.384 36.3454 84.2 35.6254 83.832C34.9214 83.464 34.3774 82.976 33.9934 82.368H33.8974V84H31.7854V66.816H33.9934V72.24L33.8974 73.872H33.9934C34.3774 73.264 34.9214 72.776 35.6254 72.408C36.3454 72.04 37.1374 71.856 38.0014 71.856C39.5534 71.856 40.8654 72.464 41.9374 73.68C43.0414 74.912 43.5934 76.392 43.5934 78.12C43.5934 79.864 43.0414 81.344 41.9374 82.56C40.8654 83.776 39.5534 84.384 38.0014 84.384ZM37.6414 82.368C38.6974 82.368 39.5854 81.968 40.3054 81.168C41.0254 80.384 41.3854 79.368 41.3854 78.12C41.3854 76.888 41.0254 75.872 40.3054 75.072C39.5854 74.272 38.6974 73.872 37.6414 73.872C36.5694 73.872 35.6734 74.272 34.9534 75.072C34.2494 75.872 33.8974 76.888 33.8974 78.12C33.8974 79.368 34.2494 80.392 34.9534 81.192C35.6734 81.976 36.5694 82.368 37.6414 82.368ZM50.8935 84.384C49.1655 84.384 47.7415 83.792 46.6215 82.608C45.5015 81.424 44.9415 79.928 44.9415 78.12C44.9415 76.328 45.4855 74.84 46.5735 73.656C47.6615 72.456 49.0535 71.856 50.7495 71.856C52.4935 71.856 53.8775 72.424 54.9015 73.56C55.9415 74.68 56.4615 76.256 56.4615 78.288L56.4375 78.528H47.1975C47.2295 79.68 47.6135 80.608 48.3495 81.312C49.0855 82.016 49.9655 82.368 50.9895 82.368C52.3975 82.368 53.5015 81.664 54.3015 80.256L56.2695 81.216C55.7415 82.208 55.0055 82.984 54.0615 83.544C53.1335 84.104 52.0775 84.384 50.8935 84.384ZM47.3655 76.704H54.1095C54.0455 75.888 53.7095 75.216 53.1015 74.688C52.5095 74.144 51.7095 73.872 50.7015 73.872C49.8695 73.872 49.1495 74.128 48.5415 74.64C47.9495 75.152 47.5575 75.84 47.3655 76.704ZM58.4807 66.816H60.6887V72.24L60.5927 73.872H60.6887C61.0247 73.296 61.5367 72.816 62.2247 72.432C62.9287 72.048 63.6567 71.856 64.4087 71.856C65.8487 71.856 66.9527 72.272 67.7207 73.104C68.5047 73.92 68.8967 75.088 68.8967 76.608V84H66.6887V77.04C66.6887 74.928 65.7527 73.872 63.8807 73.872C62.9847 73.872 62.2247 74.248 61.6007 75C60.9927 75.736 60.6887 76.6 60.6887 77.592V84H58.4807V66.816ZM72.9793 80.4C72.9793 80.976 73.2193 81.456 73.6993 81.84C74.1953 82.224 74.7713 82.416 75.4273 82.416C76.3553 82.416 77.1793 82.072 77.8993 81.384C78.6353 80.696 79.0033 79.888 79.0033 78.96C78.3153 78.416 77.3553 78.144 76.1233 78.144C75.2273 78.144 74.4753 78.36 73.8673 78.792C73.2753 79.224 72.9793 79.76 72.9793 80.4ZM75.8353 71.856C77.4673 71.856 78.7553 72.296 79.6993 73.176C80.6433 74.04 81.1153 75.232 81.1153 76.752V84H79.0033V82.368H78.9073C77.9953 83.712 76.7793 84.384 75.2593 84.384C73.9633 84.384 72.8753 84 71.9953 83.232C71.1313 82.464 70.6993 81.504 70.6993 80.352C70.6993 79.136 71.1553 78.168 72.0673 77.448C72.9953 76.728 74.2273 76.368 75.7633 76.368C77.0753 76.368 78.1553 76.608 79.0033 77.088V76.584C79.0033 75.816 78.6993 75.168 78.0913 74.64C77.4833 74.096 76.7713 73.824 75.9553 73.824C74.7233 73.824 73.7473 74.344 73.0273 75.384L71.0833 74.16C72.1553 72.624 73.7393 71.856 75.8353 71.856ZM83.6057 72.24H85.7177V73.872H85.8137C86.1497 73.296 86.6617 72.816 87.3497 72.432C88.0537 72.048 88.7817 71.856 89.5337 71.856C90.9737 71.856 92.0777 72.272 92.8457 73.104C93.6297 73.92 94.0217 75.088 94.0217 76.608V84H91.8137V76.752C91.7657 74.832 90.7977 73.872 88.9097 73.872C88.0297 73.872 87.2937 74.232 86.7017 74.952C86.1097 75.656 85.8137 76.504 85.8137 77.496V84H83.6057V72.24ZM101.99 84.384C100.246 84.384 98.7975 83.792 97.6455 82.608C96.5095 81.392 95.9415 79.896 95.9415 78.12C95.9415 76.312 96.5095 74.816 97.6455 73.632C98.7975 72.448 100.246 71.856 101.99 71.856C103.19 71.856 104.238 72.16 105.134 72.768C106.03 73.36 106.702 74.184 107.15 75.24L105.134 76.08C104.51 74.608 103.414 73.872 101.846 73.872C100.838 73.872 99.9655 74.28 99.2295 75.096C98.5095 75.912 98.1495 76.92 98.1495 78.12C98.1495 79.32 98.5095 80.328 99.2295 81.144C99.9655 81.96 100.838 82.368 101.846 82.368C103.462 82.368 104.598 81.632 105.254 80.16L107.222 81C106.79 82.056 106.11 82.888 105.182 83.496C104.27 84.088 103.206 84.384 101.99 84.384ZM114.315 84.384C112.587 84.384 111.163 83.792 110.043 82.608C108.923 81.424 108.363 79.928 108.363 78.12C108.363 76.328 108.907 74.84 109.995 73.656C111.083 72.456 112.475 71.856 114.171 71.856C115.915 71.856 117.299 72.424 118.323 73.56C119.363 74.68 119.883 76.256 119.883 78.288L119.859 78.528H110.619C110.651 79.68 111.035 80.608 111.771 81.312C112.507 82.016 113.387 82.368 114.411 82.368C115.819 82.368 116.923 81.664 117.723 80.256L119.691 81.216C119.163 82.208 118.427 82.984 117.483 83.544C116.555 84.104 115.499 84.384 114.315 84.384ZM110.787 76.704H117.531C117.467 75.888 117.131 75.216 116.523 74.688C115.931 74.144 115.131 73.872 114.123 73.872C113.291 73.872 112.571 74.128 111.963 74.64C111.371 75.152 110.979 75.84 110.787 76.704Z" fill="#2B2B28"/>
</svg>
