<svg width="39" height="39" viewBox="0 0 39 39" fill="none" xmlns="http://www.w3.org/2000/svg">
<circle cx="19.4993" cy="19.4993" r="19.4993" fill="white"/>
<path d="M17.0607 25.8155C18.0519 25.8219 19.0345 25.6254 19.9514 25.2373C20.8684 24.8491 21.7015 24.2772 22.4023 23.5546C23.1032 22.8319 23.658 21.973 24.0344 21.0276C24.4109 20.0823 24.6015 19.0692 24.5953 18.0473V17.6903C25.1091 17.3022 25.5538 16.8253 25.9097 16.2807C25.4259 16.4988 24.914 16.6435 24.3899 16.7102C24.9455 16.3689 25.3625 15.8316 25.5635 15.1977C25.0457 15.518 24.4778 15.7432 23.8852 15.8632C23.4862 15.4248 22.9581 15.1342 22.3827 15.0364C21.8073 14.9386 21.2167 15.039 20.7023 15.3222C20.1878 15.6053 19.7782 16.0553 19.5368 16.6026C19.2954 17.1499 19.2357 17.764 19.3668 18.3498C18.3141 18.2965 17.2841 18.0152 16.3438 17.5243C15.4036 17.0333 14.5741 16.3437 13.9095 15.5002C13.5744 16.0999 13.4729 16.8084 13.6254 17.4824C13.7779 18.1564 14.1732 18.7454 14.7311 19.1302C14.3195 19.1139 13.9174 18.9978 13.5575 18.7914V18.8217C13.5538 19.4484 13.7586 20.0574 14.1376 20.5473C14.5167 21.0372 15.0472 21.3784 15.6406 21.5139C15.2578 21.6201 14.8568 21.6366 14.467 21.5623C14.6388 22.0968 14.9668 22.5633 15.4059 22.898C15.8451 23.2327 16.3739 23.4192 16.9199 23.4318C15.9864 24.2065 14.8262 24.6329 13.6279 24.6418C13.4178 24.6355 13.2082 24.6173 13 24.5873C14.2129 25.3841 15.6226 25.8041 17.0607 25.7973" fill="#293647"/>
</svg>
