<svg xmlns="http://www.w3.org/2000/svg" width="28.7" height="26.28" viewBox="0 0 28.7 26.28"><title>More_Active_Ingredients_Icon</title><path d="M847.35,718.5a5.14,5.14,0,0,0-3.41-1.48,6.79,6.79,0,0,0-10-9.18L832.85,709l-1.11-1.11a6.79,6.79,0,0,0-9.6,9.6l10.71,10.71,2.08-2.08,4.64,4.65,1.42,1.41,1.41-1.41,5-5A5.15,5.15,0,0,0,847.35,718.5Zm-24.51-1.77a5.79,5.79,0,0,1,8.19-8.19l1.11,1.12.71.7.7-.7,1.12-1.12a5.79,5.79,0,1,1,8.18,8.19l-.44.44a5.59,5.59,0,0,0-1.42.61,5.12,5.12,0,0,0-6.73,7.54l-1.41,1.42Z" transform="translate(-820.15 -705.85)" fill="#111221"/></svg>