<svg width="38" height="38" viewBox="0 0 38 38" fill="none" xmlns="http://www.w3.org/2000/svg">
<path fill-rule="evenodd" clip-rule="evenodd" d="M3.60633 5.24768C5.89837 6.7103 8.45325 7.71269 11.1284 8.19892C13.9117 8.88274 16.323 9.45859 17.9066 11.3661C18.6402 12.1148 19.1959 13.019 19.5323 14.0117C19.8688 15.0044 19.9774 16.0602 19.8501 17.1006C19.5736 17.968 19.107 18.7627 18.4844 19.4268C17.8618 20.0909 17.0988 20.6078 16.2511 20.9396C13.9962 17.2766 11.247 13.9421 8.08117 11.0302C7.99985 10.9526 7.90359 10.8924 7.79824 10.8532C7.6929 10.8141 7.58068 10.7968 7.46844 10.8024C7.35619 10.808 7.24626 10.8364 7.14535 10.8859C7.04443 10.9354 6.95466 11.0049 6.88148 11.0902C6.72608 11.2512 6.63923 11.4662 6.63923 11.69C6.63923 11.9138 6.72608 12.1288 6.88148 12.2899C10.0097 15.1841 12.7155 18.5037 14.9194 22.1513C13.9237 24.1668 12.724 25.2945 11.3203 25.4984C9.58078 25.7504 7.43334 24.5627 5.54983 22.3073C2.97049 19.1401 1.63884 10.3824 3.60633 5.24768ZM10.9244 27.274C11.16 27.2918 11.3967 27.2918 11.6323 27.274C12.5639 27.0858 13.4405 26.6876 14.1951 26.1097C14.9497 25.5317 15.5626 24.7893 15.9871 23.9388C17.8351 27.2133 19.2735 30.7026 20.27 34.3282C20.3089 34.5099 20.4062 34.6739 20.547 34.7952C20.6877 34.9165 20.8643 34.9884 21.0498 35V35C21.2281 34.9969 21.401 34.9388 21.5449 34.8335C21.6889 34.7283 21.7967 34.5811 21.8536 34.4121C22.6728 32.1608 23.7775 30.0239 25.1408 28.0538C25.4818 28.7835 25.9822 29.4274 26.6051 29.9382C27.2279 30.4489 27.9574 30.8135 28.7398 31.005C29.0118 31.0632 29.2894 31.0914 29.5676 31.089C30.4891 31.0388 31.3905 30.7999 32.2159 30.3872C33.0414 29.9745 33.7733 29.3967 34.3664 28.6896C37.0537 25.8224 38.0374 17.9644 36.2259 13.9454C36.1748 13.8277 36.0974 13.7232 35.9997 13.64C35.902 13.5568 35.7864 13.4971 35.662 13.4656C35.5389 13.4344 35.4104 13.4311 35.2858 13.456C35.1613 13.4809 35.0439 13.5334 34.9422 13.6095C33.3241 14.7905 31.4705 15.6089 29.5076 16.0089C27.8669 16.327 26.2952 16.9321 24.8648 17.7964C24.053 18.287 23.3716 18.9664 22.8787 19.7768C22.3858 20.5872 22.0958 21.5047 22.0336 22.4512C22.0616 23.2345 22.2673 24.0012 22.6352 24.6933C23.003 25.3854 23.5234 25.9848 24.157 26.4462C23.0191 28.0134 22.0386 29.6891 21.2298 31.4489C20.1736 28.2924 18.8031 25.2499 17.1388 22.3672C18.1902 21.9259 19.1287 21.2535 19.8846 20.4C20.6406 19.5464 21.1947 18.5335 21.5057 17.4365C22.2015 14.3773 20.306 11.582 19.2023 10.2384C17.2588 7.83901 14.4635 7.22717 11.5243 6.50735C8.86097 5.87152 6.11368 5.21169 3.83427 3.2442C3.73803 3.1615 3.62454 3.10135 3.50208 3.06815C3.37962 3.03494 3.25128 3.0295 3.12645 3.05225C3.00241 3.07985 2.88573 3.13377 2.78432 3.21034C2.6829 3.28692 2.59911 3.38438 2.53861 3.49613C-0.352646 9.0387 1.12297 19.596 4.33814 23.435C6.38961 25.9063 8.753 27.274 10.9244 27.274" fill="#05142D"/>
</svg>
