<svg xmlns="http://www.w3.org/2000/svg" width="27.18" height="24.68" viewBox="0 0 27.18 24.68"><title>No_Fragrance_Icon</title><path d="M829.71,635.93a7.88,7.88,0,0,0-2.16,1.23l.8.64a6.29,6.29,0,0,1,3.75-1.3c4.13,0,7.49,4.27,7.49,9.51,0,.25,0,.48,0,.72l.94.75a14.15,14.15,0,0,0,.09-1.47c0-4.76-2.57-8.79-6.09-10.08V633.5h2.09c.35,1.55,2.26,2.7,4.67,2.7,2.66,0,4.74-1.41,4.74-3.2s-2.08-3.2-4.74-3.2c-2.41,0-4.32,1.15-4.67,2.7H834.5V630h-4.79v2.48H827v1h2.68Zm11.55-5.13c2,0,3.74,1,3.74,2.2s-1.71,2.2-3.74,2.2-3.74-1-3.74-2.2S839.23,630.8,841.26,630.8Z" transform="translate(-819.91 -629.8)"/><path d="M836.79,653.42h-9.37a10.61,10.61,0,0,1-2.8-7.41,11,11,0,0,1,2-6.42l-.78-.62a12,12,0,0,0-2.2,7,11.51,11.51,0,0,0,3.25,8.27l.14.14H837.2l.14-.14a10.52,10.52,0,0,0,2.54-4.09l-.83-.66A9.7,9.7,0,0,1,836.79,653.42Z" transform="translate(-819.91 -629.8)"/><polygon points="20.47 18.55 19.56 17.82 7.85 8.48 7.06 7.86 0.62 2.72 0 3.5 6.37 8.58 7.15 9.2 19.36 18.94 20.22 19.63 26.56 24.68 27.18 23.9 20.47 18.55"/></svg>