<svg width="38" height="26" viewBox="0 0 38 26" fill="none" xmlns="http://www.w3.org/2000/svg">
<g clip-path="url(#clip0)">
<path fill-rule="evenodd" clip-rule="evenodd" d="M1.60002 23.55H6.50002V14.15H1.60002V23.55ZM7.42002 12.55H0.800019C0.694212 12.5473 0.588953 12.5661 0.490649 12.6053C0.392346 12.6445 0.303055 12.7034 0.228213 12.7782C0.153371 12.853 0.0945436 12.9423 0.0553131 13.0406C0.0160826 13.1389 -0.00273051 13.2442 1.91269e-05 13.35V24.35C-0.00273051 24.4558 0.0160826 24.5611 0.0553131 24.6594C0.0945436 24.7577 0.153371 24.847 0.228213 24.9218C0.303055 24.9967 0.392346 25.0555 0.490649 25.0947C0.588953 25.1339 0.694212 25.1528 0.800019 25.15H7.42002C7.52583 25.1528 7.63109 25.1339 7.72939 25.0947C7.82769 25.0555 7.91698 24.9967 7.99183 24.9218C8.06667 24.847 8.12549 24.7577 8.16473 24.6594C8.20396 24.5611 8.22277 24.4558 8.22002 24.35V13.35C8.22277 13.2442 8.20396 13.1389 8.16473 13.0406C8.12549 12.9423 8.06667 12.853 7.99183 12.7782C7.91698 12.7034 7.82769 12.6445 7.72939 12.6053C7.63109 12.5661 7.52583 12.5473 7.42002 12.55V12.55Z" fill="#05142D"/>
<path fill-rule="evenodd" clip-rule="evenodd" d="M11.53 23.55H16.43V7.87003H11.53V23.55ZM17.35 6.32003H10.73C10.6241 6.31728 10.5189 6.33609 10.4206 6.37532C10.3223 6.41455 10.233 6.47338 10.1581 6.54822C10.0833 6.62306 10.0245 6.71235 9.98524 6.81066C9.94601 6.90896 9.9272 7.01422 9.92995 7.12003V24.3C9.9272 24.4058 9.94601 24.5111 9.98524 24.6094C10.0245 24.7077 10.0833 24.797 10.1581 24.8718C10.233 24.9467 10.3223 25.0055 10.4206 25.0447C10.5189 25.084 10.6241 25.1028 10.73 25.1H17.35C17.4549 25.1014 17.5591 25.0816 17.6562 25.0417C17.7534 25.0019 17.8414 24.9429 17.9152 24.8682C17.989 24.7935 18.0469 24.7046 18.0855 24.607C18.1241 24.5094 18.1427 24.405 18.1399 24.3V7.07003C18.1427 6.96508 18.1241 6.86066 18.0855 6.76304C18.0469 6.66542 17.989 6.57659 17.9152 6.50189C17.8414 6.42719 17.7534 6.36816 17.6562 6.32831C17.5591 6.28847 17.4549 6.26865 17.35 6.27003V6.32003Z" fill="#05142D"/>
<path fill-rule="evenodd" clip-rule="evenodd" d="M27.27 1.91264e-05H20.65C20.545 -0.00136157 20.4409 0.0184634 20.3437 0.0583058C20.2466 0.0981482 20.1585 0.157188 20.0847 0.231888C20.011 0.306588 19.953 0.395411 19.9144 0.493033C19.8758 0.590656 19.8573 0.695071 19.86 0.800019V24.3C19.8573 24.405 19.8758 24.5094 19.9144 24.607C19.953 24.7046 20.011 24.7935 20.0847 24.8682C20.1585 24.9429 20.2466 25.0019 20.3437 25.0417C20.4409 25.0816 20.545 25.1014 20.65 25.1H27.27C27.3758 25.1028 27.4811 25.084 27.5794 25.0447C27.6777 25.0055 27.767 24.9467 27.8418 24.8718C27.9166 24.797 27.9755 24.7077 28.0147 24.6094C28.0539 24.5111 28.0727 24.4058 28.07 24.3V0.800019C28.0727 0.694213 28.0539 0.588953 28.0147 0.490649C27.9755 0.392346 27.9166 0.303055 27.8418 0.228213C27.767 0.153371 27.6777 0.0945437 27.5794 0.0553132C27.4811 0.0160827 27.3758 -0.00273051 27.27 1.91264e-05" fill="#05142D"/>
<path fill-rule="evenodd" clip-rule="evenodd" d="M37.2 23.55H30.58C30.3679 23.55 30.1644 23.6343 30.0143 23.7843C29.8643 23.9343 29.78 24.1378 29.78 24.35C29.78 24.5622 29.8643 24.7656 30.0143 24.9157C30.1644 25.0657 30.3679 25.15 30.58 25.15H37.2C37.4122 25.15 37.6157 25.0657 37.7657 24.9157C37.9157 24.7656 38 24.5622 38 24.35C38 24.1378 37.9157 23.9343 37.7657 23.7843C37.6157 23.6343 37.4122 23.55 37.2 23.55" fill="#05142D"/>
</g>
<defs>
<clipPath id="clip0">
<rect width="38" height="25.11" fill="white"/>
</clipPath>
</defs>
</svg>
