<svg xmlns="http://www.w3.org/2000/svg" viewBox="0 0 47.316 42.58">
  <defs>
    <style>
      .cls-1, .cls-2 {
        fill: #fff;
      }

      .cls-1 {
        stroke: #fff;
        stroke-miterlimit: 10;
        stroke-width: 2px;
      }
    </style>
  </defs>
  <g id="logo" transform="translate(-0.036)">
    <g id="Layer_1" data-name="Layer 1" transform="translate(0.037)">
      <path id="Path_8" data-name="Path 8" class="cls-1" d="M405.453,315.006a.463.463,0,0,1-.4-.231l-9.966-17.246a.464.464,0,0,1,.8-.463l9.963,17.245a.463.463,0,0,1-.4.695Z" transform="translate(-364.876 -273.426)"/>
      <path id="Path_9" data-name="Path 9" class="cls-2" d="M25.393.067,2.739,39.26l.022-.035a1.435,1.435,0,0,1-1.971.483,1.44,1.44,0,0,1-.574-1.949l-.041.073L22.035,0Z" transform="translate(-0.037)"/>
      <path id="Path_10" data-name="Path 10" class="cls-2" d="M95.025,48.237,112.7,78.816l-.028-.048a1.642,1.642,0,0,0,2.856-1.608l.092.153L94.933,41.52,74.25,77.313Z" transform="translate(-68.398 -38.246)"/>
    </g>
  </g>
</svg>
