<svg width="38" height="38" viewBox="0 0 38 38" fill="none" xmlns="http://www.w3.org/2000/svg">
<path fill-rule="evenodd" clip-rule="evenodd" d="M15.52 15C15.3875 14.9331 15.2347 14.9186 15.092 14.9593C14.9493 15.0001 14.8272 15.0932 14.75 15.22C12.54 19.12 11.41 21.87 11.41 23.37C11.4054 24.2281 11.5699 25.0786 11.8942 25.8731C12.2185 26.6675 12.6962 27.3903 13.3 28C13.4079 28.1027 13.5511 28.16 13.7 28.16C13.8489 28.16 13.9922 28.1027 14.1 28C14.1562 27.9577 14.2027 27.9038 14.2363 27.8419C14.2698 27.78 14.2896 27.7116 14.2943 27.6414C14.2991 27.5712 14.2887 27.5008 14.2637 27.435C14.2388 27.3692 14.2 27.3095 14.15 27.26C13.1342 26.2309 12.5601 24.846 12.55 23.4C12.55 22.48 13.11 20.4 15.76 15.74C15.8007 15.6775 15.827 15.6067 15.8368 15.5328C15.8466 15.4588 15.8398 15.3836 15.8168 15.3127C15.7938 15.2417 15.7552 15.1768 15.7038 15.1227C15.6525 15.0686 15.5897 15.0267 15.52 15" fill="#05142D"/>
<path fill-rule="evenodd" clip-rule="evenodd" d="M17.78 33.46C15.2197 33.4706 12.76 32.4645 10.9411 30.6625C9.12231 28.8606 8.09323 26.4103 8.08 23.85C8.08 19.14 15.81 7.00001 17.78 4.00001C19.78 7.00001 27.48 19.11 27.48 23.82C27.4744 24.3972 27.4175 24.9728 27.31 25.54C26.43 24.04 25.64 22.88 25.64 22.88C25.64 22.88 21.49 29.05 21.49 31.32C21.4889 31.7545 21.5564 32.1865 21.69 32.6C20.4592 33.1477 19.1271 33.4304 17.78 33.43V33.46ZM28.09 26.91C28.3966 25.9087 28.5516 24.8672 28.55 23.82C28.55 18.13 18.65 3.35001 18.22 2.73001C18.169 2.65977 18.1021 2.60261 18.0247 2.5632C17.9474 2.52378 17.8618 2.50323 17.775 2.50323C17.6882 2.50323 17.6026 2.52378 17.5253 2.5632C17.4479 2.60261 17.381 2.65977 17.33 2.73001C16.91 3.38001 7 18.16 7 23.85C7.01587 26.6941 8.16022 29.4155 10.1816 31.4162C12.2029 33.4169 14.9359 34.5333 17.78 34.52C19.2888 34.5182 20.7806 34.2015 22.16 33.59C22.6489 34.3366 23.3649 34.9062 24.2024 35.2146C25.0398 35.5231 25.9542 35.554 26.8106 35.3029C27.667 35.0519 28.4199 34.532 28.9582 33.8202C29.4965 33.1084 29.7916 32.2424 29.8 31.35C29.5234 29.7825 28.9425 28.2843 28.09 26.94" fill="#05142D"/>
</svg>
