<?xml version="1.0" encoding="utf-8"?>
<!-- Generator: Adobe Illustrator 24.0.0, SVG Export Plug-In . SVG Version: 6.00 Build 0)  -->
<svg version="1.1" id="Layer_1" xmlns="http://www.w3.org/2000/svg" xmlns:xlink="http://www.w3.org/1999/xlink" x="0px" y="0px"
	 viewBox="0 0 27.2 24.7" width="27.2px" height="24.7px" style="enable-background:new 0 0 27.2 24.7;" xml:space="preserve">
<title>No_Fragrance_Icon</title>
<path d="M13.9,20.5L13.9,20.5c-2.3,0-4.2-1.9-4.2-4.2l0,0l0,0C12.1,16.3,13.9,18.2,13.9,20.5L13.9,20.5z"/>
<path d="M13.9,16.3L13.9,16.3c-2.3,0-4.2-1.9-4.2-4.2l0,0l0,0C12.1,12.1,13.9,14,13.9,16.3L13.9,16.3z"/>
<path d="M13.9,12.1L13.9,12.1c-2.3,0-4.2-1.9-4.2-4.2l0,0l0,0C12.1,8,13.9,9.9,13.9,12.1L13.9,12.1z"/>
<path d="M13.9,20.5L13.9,20.5c2.3,0,4.2-1.9,4.2-4.2l0,0l0,0C15.8,16.3,13.9,18.2,13.9,20.5L13.9,20.5z"/>
<path d="M13.9,16.3L13.9,16.3c2.3,0,4.2-1.9,4.2-4.2l0,0l0,0C15.8,12.1,13.9,14,13.9,16.3L13.9,16.3z"/>
<path d="M13.9,12.1L13.9,12.1c2.3,0,4.2-1.9,4.2-4.2l0,0l0,0C15.8,8,13.9,9.9,13.9,12.1L13.9,12.1z"/>
<path d="M13.9,8L13.9,8c-2.3,0-4.2-1.9-4.2-4.2l0,0l0,0C12.1,3.8,13.9,5.7,13.9,8L13.9,8z"/>
<path d="M13.9,8L13.9,8c2.3,0,4.2-1.9,4.2-4.2l0,0l0,0C15.8,3.8,13.9,5.7,13.9,8L13.9,8z"/>
<path d="M13.9,0.2c-6.6,0-12,5.4-12,12s5.4,12,12,12s12-5.4,12-12S20.5,0.2,13.9,0.2z M2.9,12.1c0-2.9,1.1-5.5,2.9-7.4l15.6,15.6
	c-2,1.8-4.6,2.9-7.4,2.9C7.9,23.2,2.9,18.2,2.9,12.1z M22.1,19.6L6.5,4c2-1.8,4.6-2.9,7.4-2.9c6.1,0,11,4.9,11,11
	C25,15,23.8,17.6,22.1,19.6z"/>
</svg>