<svg width="33" height="36" viewBox="0 0 33 36" fill="none" xmlns="http://www.w3.org/2000/svg">
<path fill-rule="evenodd" clip-rule="evenodd" d="M16.83 33.83C13.0183 33.7975 9.36915 32.2816 6.65638 29.6037C3.9436 26.9259 2.38052 23.2967 2.29857 19.4857C2.21663 15.6748 3.62228 11.9818 6.21744 9.18977C8.81261 6.39779 12.3932 4.72641 16.2 4.53005V7.10005C13.4585 7.2302 10.8429 8.28925 8.78317 10.1031C6.72343 11.9169 5.34213 14.3776 4.86636 17.0806C4.39059 19.7836 4.84865 22.5681 6.16526 24.9762C7.48186 27.3843 9.57865 29.2728 12.1109 30.3313C14.6432 31.3897 17.4602 31.555 20.0989 30.8001C22.7375 30.0451 25.0408 28.4149 26.6301 26.1773C28.2194 23.9397 29 21.2279 28.8437 18.4878C28.6874 15.7477 27.6034 13.1424 25.77 11.1L27.57 9.28004C29.4791 11.3753 30.7403 13.9788 31.2011 16.7758C31.6619 19.5727 31.3025 22.4432 30.1664 25.0401C29.0303 27.6371 27.1661 29.8493 24.7993 31.4092C22.4325 32.9692 19.6645 33.81 16.83 33.83V33.83ZM24.83 11.99C26.4431 13.8128 27.3899 16.1291 27.5154 18.56C27.641 20.9908 26.9378 23.3923 25.521 25.3716C24.1043 27.3508 22.0577 28.7907 19.7162 29.4556C17.3747 30.1205 14.8768 29.971 12.6313 29.0317C10.3857 28.0924 8.52545 26.4188 7.35475 24.2847C6.18406 22.1506 5.77227 19.6824 6.18675 17.2839C6.60123 14.8853 7.81744 12.6985 9.63641 11.081C11.4554 9.46358 13.7694 8.51132 16.2 8.38004V19.17C16.1985 19.2961 16.2348 19.4198 16.3044 19.5249C16.3739 19.6301 16.4734 19.712 16.59 19.76C16.7054 19.8109 16.8336 19.8247 16.9572 19.7996C17.0808 19.7746 17.1935 19.7118 17.28 19.62L24.83 11.99ZM28 7.91004C27.9413 7.85018 27.8713 7.80262 27.794 7.77015C27.7168 7.73768 27.6338 7.72095 27.55 7.72095C27.4662 7.72095 27.3832 7.73768 27.3059 7.77015C27.2286 7.80262 27.1586 7.85018 27.1 7.91004L17.44 17.64V3.88004C17.4374 3.71205 17.3688 3.55182 17.249 3.43395C17.1293 3.31608 16.968 3.25002 16.8 3.25004C13.125 3.24131 9.56072 4.50747 6.71483 6.83267C3.86895 9.15787 1.91762 12.3982 1.19352 16.0011C0.469428 19.6041 1.01739 23.3467 2.74399 26.5908C4.4706 29.8349 7.26895 32.3798 10.662 33.7916C14.055 35.2033 17.8326 35.3945 21.3509 34.3326C24.8691 33.2707 27.9101 31.0214 29.9555 27.9681C32.0008 24.9149 32.9239 21.2468 32.5673 17.5891C32.2107 13.9315 30.5965 10.5107 28 7.91004" fill="#05142D"/>
<path fill-rule="evenodd" clip-rule="evenodd" d="M19.65 11.9301C19.7062 11.9396 19.7637 11.9396 19.82 11.9301C19.8754 11.9309 19.9305 11.9207 19.982 11.9001C20.0335 11.8795 20.0804 11.8489 20.12 11.8101L27.43 4.58007C27.4702 4.54011 27.5021 4.49259 27.5239 4.44024C27.5457 4.3879 27.5569 4.33177 27.5569 4.27507C27.5569 4.21838 27.5457 4.16225 27.5239 4.1099C27.5021 4.05756 27.4702 4.01004 27.43 3.97007C26.4274 2.9787 25.2393 2.19465 23.9335 1.66273C22.6277 1.13081 21.2299 0.861463 19.82 0.870073C19.7059 0.870073 19.5966 0.915377 19.5159 0.996017C19.4353 1.07666 19.39 1.18603 19.39 1.30007V11.5401C19.3883 11.6239 19.4123 11.7062 19.4588 11.7759C19.5052 11.8456 19.572 11.8994 19.65 11.9301" fill="#05142D"/>
</svg>
