<svg width="32" height="32" viewBox="0 0 32 32" fill="none" xmlns="http://www.w3.org/2000/svg">
<path fill-rule="evenodd" clip-rule="evenodd" d="M15.83 30.7799C12.9068 30.7799 10.0492 29.9131 7.61869 28.289C5.18813 26.665 3.29374 24.3567 2.17508 21.656C1.05641 18.9553 0.763721 15.9835 1.33401 13.1165C1.9043 10.2494 3.31196 7.6159 5.37898 5.54888C7.446 3.48186 10.0795 2.0742 12.9466 1.50392C15.8136 0.933626 18.7854 1.22632 21.4861 2.34498C24.1868 3.46365 26.4951 5.35803 28.1191 7.78859C29.7432 10.2192 30.61 13.0767 30.61 15.9999C30.6074 19.919 29.0493 23.6768 26.2781 26.448C23.5069 29.2192 19.7491 30.7773 15.83 30.7799V30.7799ZM15.83 0.169922C12.6996 0.171899 9.63998 1.10199 7.03807 2.84262C4.43615 4.58324 2.40874 7.05624 1.21214 9.94897C0.0155337 12.8417 -0.296527 16.0243 0.315406 19.0943C0.927339 22.1644 2.43579 24.9841 4.65005 27.197C6.86431 29.4098 9.68497 30.9165 12.7554 31.5265C15.8259 32.1365 19.0082 31.8224 21.9002 30.624C24.7922 29.4255 27.2639 27.3966 29.0029 24.7936C30.7419 22.1905 31.67 19.1304 31.67 15.9999C31.6647 11.8014 29.9938 7.77658 27.0241 4.80874C24.0544 1.8409 20.0285 0.172567 15.83 0.169922" fill="#05142D"/>
<path fill-rule="evenodd" clip-rule="evenodd" d="M15.83 26.7799C13.458 26.7784 11.1729 25.8867 9.42671 24.2812C7.68053 22.6758 6.60043 20.4735 6.40005 18.1099H25.2701C25.0695 20.4752 23.988 22.6789 22.2397 24.2846C20.4914 25.8903 18.2038 26.7809 15.83 26.7799V26.7799ZM25.83 17.0599H5.83005C5.76092 17.0586 5.69223 17.0711 5.62798 17.0966C5.56373 17.1221 5.50522 17.1602 5.45587 17.2086C5.40652 17.2571 5.36732 17.3148 5.34057 17.3786C5.31381 17.4423 5.30004 17.5108 5.30005 17.5799C5.33694 20.3365 6.46681 22.9656 8.44132 24.8895C10.4158 26.8134 13.0734 27.8746 15.83 27.8399C18.584 27.8719 21.238 26.8092 23.2087 24.8853C25.1795 22.9615 26.3058 20.3338 26.34 17.5799C26.34 17.442 26.2853 17.3097 26.1877 17.2122C26.0902 17.1147 25.958 17.0599 25.82 17.0599" fill="#05142D"/>
<path fill-rule="evenodd" clip-rule="evenodd" d="M9.99999 12.83C10.5221 12.83 11.0325 12.6752 11.4667 12.3851C11.9008 12.095 12.2392 11.6827 12.439 11.2003C12.6388 10.7179 12.6911 10.1871 12.5893 9.67501C12.4874 9.1629 12.236 8.6925 11.8667 8.32329C11.4975 7.95408 11.0271 7.70264 10.515 7.60078C10.0029 7.49891 9.4721 7.55119 8.9897 7.75101C8.5073 7.95082 8.09499 8.2892 7.80491 8.72334C7.51482 9.15749 7.35999 9.66791 7.35999 10.19C7.35999 10.8902 7.63813 11.5617 8.13322 12.0568C8.62832 12.5519 9.29981 12.83 9.99999 12.83" fill="#05142D"/>
<path fill-rule="evenodd" clip-rule="evenodd" d="M22.12 12.83C22.6421 12.83 23.1525 12.6752 23.5867 12.3851C24.0208 12.095 24.3592 11.6827 24.559 11.2003C24.7588 10.7179 24.8111 10.1871 24.7093 9.67501C24.6074 9.1629 24.356 8.6925 23.9867 8.32329C23.6175 7.95408 23.1471 7.70264 22.635 7.60078C22.1229 7.49891 21.5921 7.55119 21.1097 7.75101C20.6273 7.95082 20.215 8.2892 19.9249 8.72334C19.6348 9.15749 19.48 9.66791 19.48 10.19C19.48 10.8902 19.7581 11.5617 20.2532 12.0568C20.7483 12.5519 21.4198 12.83 22.12 12.83Z" fill="#05142D"/>
</svg>
